<svg width="26" height="24" viewBox="0 0 26 24" fill="none" xmlns="http://www.w3.org/2000/svg">
<path d="M2.4375 19.125V13.4375C2.44005 12.5763 2.78327 11.7512 3.39221 11.1422C4.00116 10.5333 4.82633 10.19 5.6875 10.1875H20.3125C21.1737 10.19 21.9988 10.5333 22.6078 11.1422C23.2167 11.7512 23.56 12.5763 23.5625 13.4375V19.125M19.5 10.1875H4.875V4.90625C4.87661 4.36802 5.09113 3.8523 5.47171 3.47171C5.8523 3.09113 6.36802 2.87661 6.90625 2.875H19.0938C19.632 2.87661 20.1477 3.09113 20.5283 3.47171C20.9089 3.8523 21.1234 4.36802 21.125 4.90625V10.1875H19.5Z" stroke="black" stroke-width="2" stroke-linecap="round" stroke-linejoin="round"/>
<path d="M2.4375 19.125V18.7188C2.43844 18.3958 2.56714 18.0864 2.7955 17.858C3.02386 17.6296 3.33331 17.5009 3.65625 17.5H22.3438C22.6667 17.5009 22.9761 17.6296 23.2045 17.858C23.4329 18.0864 23.5616 18.3958 23.5625 18.7188V19.125M5.6875 10.1875V9.375C5.68871 8.94439 5.8603 8.53177 6.16478 8.22728C6.46927 7.9228 6.88189 7.75121 7.3125 7.75H11.375C11.8056 7.75121 12.2182 7.9228 12.5227 8.22728C12.8272 8.53177 12.9988 8.94439 13 9.375M13 9.375V10.1875M13 9.375C13.0012 8.94439 13.1728 8.53177 13.4773 8.22728C13.7818 7.9228 14.1944 7.75121 14.625 7.75H18.6875C19.1181 7.75121 19.5307 7.9228 19.8352 8.22728C20.1397 8.53177 20.3113 8.94439 20.3125 9.375V10.1875" stroke="black" stroke-width="2" stroke-linecap="round" stroke-linejoin="round"/>
</svg>
