<svg width="13" height="14" viewBox="0 0 13 14" fill="none" xmlns="http://www.w3.org/2000/svg">
<g id="Calendar">
<path id="Fill 1" fill-rule="evenodd" clip-rule="evenodd" d="M11.5554 5.77734H1.15808C0.916581 5.77734 0.720581 5.58134 0.720581 5.33984C0.720581 5.09834 0.916581 4.90234 1.15808 4.90234H11.5554C11.7969 4.90234 11.9929 5.09834 11.9929 5.33984C11.9929 5.58134 11.7969 5.77734 11.5554 5.77734" fill="white"/>
<path id="Fill 3" fill-rule="evenodd" clip-rule="evenodd" d="M8.9507 8.05542C8.7092 8.05542 8.51086 7.85942 8.51086 7.61792C8.51086 7.37642 8.70395 7.18042 8.94545 7.18042H8.9507C9.1922 7.18042 9.3882 7.37642 9.3882 7.61792C9.3882 7.85942 9.1922 8.05542 8.9507 8.05542" fill="white"/>
<path id="Fill 5" fill-rule="evenodd" clip-rule="evenodd" d="M6.36207 8.05542C6.12057 8.05542 5.92224 7.85942 5.92224 7.61792C5.92224 7.37642 6.11532 7.18042 6.35682 7.18042H6.36207C6.60357 7.18042 6.79957 7.37642 6.79957 7.61792C6.79957 7.85942 6.60357 8.05542 6.36207 8.05542" fill="white"/>
<path id="Fill 7" fill-rule="evenodd" clip-rule="evenodd" d="M3.76818 8.05542C3.52668 8.05542 3.32776 7.85942 3.32776 7.61792C3.32776 7.37642 3.52143 7.18042 3.76293 7.18042H3.76818C4.00968 7.18042 4.20568 7.37642 4.20568 7.61792C4.20568 7.85942 4.00968 8.05542 3.76818 8.05542" fill="white"/>
<path id="Fill 9" fill-rule="evenodd" clip-rule="evenodd" d="M8.9507 10.3228C8.7092 10.3228 8.51086 10.1268 8.51086 9.88525C8.51086 9.64375 8.70395 9.44775 8.94545 9.44775H8.9507C9.1922 9.44775 9.3882 9.64375 9.3882 9.88525C9.3882 10.1268 9.1922 10.3228 8.9507 10.3228" fill="white"/>
<path id="Fill 11" fill-rule="evenodd" clip-rule="evenodd" d="M6.36207 10.3228C6.12057 10.3228 5.92224 10.1268 5.92224 9.88525C5.92224 9.64375 6.11532 9.44775 6.35682 9.44775H6.36207C6.60357 9.44775 6.79957 9.64375 6.79957 9.88525C6.79957 10.1268 6.60357 10.3228 6.36207 10.3228" fill="white"/>
<path id="Fill 13" fill-rule="evenodd" clip-rule="evenodd" d="M3.76818 10.3228C3.52668 10.3228 3.32776 10.1268 3.32776 9.88525C3.32776 9.64375 3.52143 9.44775 3.76293 9.44775H3.76818C4.00968 9.44775 4.20568 9.64375 4.20568 9.88525C4.20568 10.1268 4.00968 10.3228 3.76818 10.3228" fill="white"/>
<path id="Fill 15" fill-rule="evenodd" clip-rule="evenodd" d="M8.71289 3.378C8.47139 3.378 8.27539 3.182 8.27539 2.9405V1.02075C8.27539 0.779252 8.47139 0.583252 8.71289 0.583252C8.95439 0.583252 9.15039 0.779252 9.15039 1.02075V2.9405C9.15039 3.182 8.95439 3.378 8.71289 3.378" fill="white"/>
<path id="Fill 17" fill-rule="evenodd" clip-rule="evenodd" d="M4.00061 3.378C3.75911 3.378 3.56311 3.182 3.56311 2.9405V1.02075C3.56311 0.779252 3.75911 0.583252 4.00061 0.583252C4.24211 0.583252 4.43811 0.779252 4.43811 1.02075V2.9405C4.43811 3.182 4.24211 3.378 4.00061 3.378" fill="white"/>
<g id="Group 21">
<mask id="mask0_4505_2460" style="mask-type:luminance" maskUnits="userSpaceOnUse" x="0" y="1" width="13" height="13">
<path id="Clip 20" fill-rule="evenodd" clip-rule="evenodd" d="M0.666626 1.50439H12.0416V13.1249H0.666626V1.50439Z" fill="white"/>
</mask>
<g mask="url(#mask0_4505_2460)">
<path id="Fill 19" fill-rule="evenodd" clip-rule="evenodd" d="M3.88721 2.37939C2.37463 2.37939 1.54163 3.18614 1.54163 4.65089V9.92948C1.54163 11.4263 2.37463 12.25 3.88721 12.25H8.82104C10.3336 12.25 11.1666 11.4415 11.1666 9.97381V4.65089C11.169 3.93048 10.9753 3.37048 10.5909 2.98548C10.1954 2.58881 9.58579 2.37939 8.82629 2.37939H3.88721ZM8.82104 13.125H3.88721C1.90096 13.125 0.666626 11.9006 0.666626 9.92948V4.65089C0.666626 2.70956 1.90096 1.50439 3.88721 1.50439H8.82629C9.82321 1.50439 10.6475 1.80306 11.2104 2.36714C11.757 2.91606 12.0445 3.70531 12.0416 4.65206V9.97381C12.0416 11.9175 10.8073 13.125 8.82104 13.125V13.125Z" fill="white"/>
</g>
</g>
</g>
</svg>
