<svg width="20" height="17" viewBox="0 0 20 17" fill="none" xmlns="http://www.w3.org/2000/svg">
<path d="M2.268 16H2C1.46957 16 0.960859 15.7893 0.585786 15.4142C0.210714 15.0391 0 14.5304 0 14V2C0 1.46957 0.210714 0.960859 0.585786 0.585786C0.960859 0.210714 1.46957 0 2 0H18C18.5304 0 19.0391 0.210714 19.4142 0.585786C19.7893 0.960859 20 1.46957 20 2V14C20 14.5304 19.7893 15.0391 19.4142 15.4142C19.0391 15.7893 18.5304 16 18 16H17.732C17.5565 16.304 17.304 16.5565 17 16.732C16.6959 16.9075 16.3511 16.9999 16 16.9999C15.6489 16.9999 15.3041 16.9075 15 16.732C14.696 16.5565 14.4435 16.304 14.268 16H5.732C5.55646 16.304 5.30398 16.5565 4.99996 16.732C4.69593 16.9075 4.35106 16.9999 4 16.9999C3.64894 16.9999 3.30407 16.9075 3.00004 16.732C2.69602 16.5565 2.44354 16.304 2.268 16ZM2 2V14H18V2H2ZM4 8H16V12H4V8ZM4 4H9V6H4V4ZM8 9V10H12V9H8ZM12 6C11.7348 6 11.4804 5.89464 11.2929 5.70711C11.1054 5.51957 11 5.26522 11 5C11 4.73478 11.1054 4.48043 11.2929 4.29289C11.4804 4.10536 11.7348 4 12 4C12.2652 4 12.5196 4.10536 12.7071 4.29289C12.8946 4.48043 13 4.73478 13 5C13 5.26522 12.8946 5.51957 12.7071 5.70711C12.5196 5.89464 12.2652 6 12 6ZM15 6C14.7348 6 14.4804 5.89464 14.2929 5.70711C14.1054 5.51957 14 5.26522 14 5C14 4.73478 14.1054 4.48043 14.2929 4.29289C14.4804 4.10536 14.7348 4 15 4C15.2652 4 15.5196 4.10536 15.7071 4.29289C15.8946 4.48043 16 4.73478 16 5C16 5.26522 15.8946 5.51957 15.7071 5.70711C15.5196 5.89464 15.2652 6 15 6Z" fill="black"/>
</svg>
