<svg width="37" height="36" viewBox="0 0 37 36" fill="none" xmlns="http://www.w3.org/2000/svg">
<g id="Iconly/Light/Heart">
<g id="Fill 1" opacity="0.4">
<path d="M18.4986 32.9972C17.3451 32.9972 16.1931 32.5592 15.3126 31.6847L14.2176 30.5897C13.7931 30.1667 13.2246 29.9327 12.6216 29.9312H11.0811C8.59115 29.9312 6.56465 27.9047 6.56465 25.4147V23.8727C6.56315 23.2712 6.32915 22.7027 5.90465 22.2752L4.82765 21.1997C3.06365 19.4462 3.05615 16.5797 4.81115 14.8142L5.90615 13.7177C6.32915 13.2932 6.56315 12.7247 6.56465 12.1217V10.5827C6.56465 8.09122 8.59115 6.06472 11.0811 6.06472H12.6231C13.2246 6.06472 13.7916 5.83072 14.2191 5.40322L15.2976 4.32772C17.0511 2.56372 19.9161 2.55472 21.6831 4.31122L22.7781 5.40622C23.2041 5.83072 23.7711 6.06472 24.3726 6.06472H25.9146C28.4046 6.06472 30.4311 8.09122 30.4311 10.5827V12.1232C30.4326 12.7247 30.6666 13.2932 31.0911 13.7207L32.1681 14.7977C33.0216 15.6467 33.4941 16.7777 33.4986 17.9852C33.5016 19.1852 33.0396 20.3147 32.1981 21.1682C32.1831 21.1832 32.1696 21.1997 32.1546 21.2132L31.0896 22.2782C30.6666 22.7027 30.4326 23.2712 30.4311 23.8742V25.4147C30.4311 27.9047 28.4046 29.9312 25.9146 29.9312H24.3726C23.7711 29.9327 23.2026 30.1667 22.7766 30.5912L21.6981 31.6682C20.8191 32.5532 19.6581 32.9972 18.4986 32.9972Z" fill="#F6DA92" fill-opacity="0.66"/>
<path d="M18.4986 32.9972C17.3451 32.9972 16.1931 32.5592 15.3126 31.6847L14.2176 30.5897C13.7931 30.1667 13.2246 29.9327 12.6216 29.9312H11.0811C8.59115 29.9312 6.56465 27.9047 6.56465 25.4147V23.8727C6.56315 23.2712 6.32915 22.7027 5.90465 22.2752L4.82765 21.1997C3.06365 19.4462 3.05615 16.5797 4.81115 14.8142L5.90615 13.7177C6.32915 13.2932 6.56315 12.7247 6.56465 12.1217V10.5827C6.56465 8.09122 8.59115 6.06472 11.0811 6.06472H12.6231C13.2246 6.06472 13.7916 5.83072 14.2191 5.40322L15.2976 4.32772C17.0511 2.56372 19.9161 2.55472 21.6831 4.31122L22.7781 5.40622C23.2041 5.83072 23.7711 6.06472 24.3726 6.06472H25.9146C28.4046 6.06472 30.4311 8.09122 30.4311 10.5827V12.1232C30.4326 12.7247 30.6666 13.2932 31.0911 13.7207L32.1681 14.7977C33.0216 15.6467 33.4941 16.7777 33.4986 17.9852C33.5016 19.1852 33.0396 20.3147 32.1981 21.1682C32.1831 21.1832 32.1696 21.1997 32.1546 21.2132L31.0896 22.2782C30.6666 22.7027 30.4326 23.2712 30.4311 23.8742V25.4147C30.4311 27.9047 28.4046 29.9312 25.9146 29.9312H24.3726C23.7711 29.9327 23.2026 30.1667 22.7766 30.5912L21.6981 31.6682C20.8191 32.5532 19.6581 32.9972 18.4986 32.9972" stroke="white"/>
</g>
<path id="Combined Shape" fill-rule="evenodd" clip-rule="evenodd" d="M15.5643 15.0764C15.3168 15.3239 14.9958 15.4574 14.6403 15.4574C14.3073 15.4574 13.9803 15.3209 13.7178 15.0749C13.4688 14.8274 13.3278 14.4884 13.3278 14.1449C13.3278 13.8179 13.4658 13.4819 13.7088 13.2224C13.8423 13.0874 14.0013 12.9854 14.1603 12.9314C14.6133 12.7244 15.2148 12.8459 15.5718 13.2209C15.6993 13.3484 15.7968 13.4879 15.8613 13.6334C15.9318 13.7894 15.9678 13.9664 15.9678 14.1449C15.9678 14.5019 15.8253 14.8334 15.5643 15.0764ZM23.2858 13.2147C22.7743 12.7047 21.9418 12.7047 21.4303 13.2147L13.7203 20.9247C13.2088 21.4362 13.2088 22.2687 13.7203 22.7817C13.9693 23.0292 14.2978 23.1657 14.6488 23.1657C14.9998 23.1657 15.3283 23.0292 15.5758 22.7817L23.2858 15.0717C23.7973 14.5587 23.7973 13.7277 23.2858 13.2147ZM22.8588 20.6459C22.3728 20.4419 21.7968 20.5529 21.4128 20.9369C21.3333 21.0299 21.2208 21.1739 21.1443 21.3434C21.0633 21.5264 21.0528 21.7229 21.0528 21.8549C21.0528 21.9869 21.0633 22.1819 21.1443 22.3649C21.2193 22.5329 21.3093 22.6694 21.4278 22.7879C21.6993 23.0399 22.0143 23.1674 22.3653 23.1674C22.6983 23.1674 23.0253 23.0324 23.2938 22.7819C23.5323 22.5434 23.6628 22.2134 23.6628 21.8549C23.6628 21.4949 23.5323 21.1664 23.2923 20.9264C23.1603 20.7959 23.0013 20.6939 22.8588 20.6459Z" fill="white"/>
</g>
</svg>
