<svg width="12" height="12" viewBox="0 0 12 12" fill="none" xmlns="http://www.w3.org/2000/svg">
<g id="Frame 23">
<rect x="0.5" y="0.5" width="11" height="11" rx="5.5" fill="#3BB77E"/>
<rect x="0.5" y="0.5" width="11" height="11" rx="5.5" stroke="#3BB77E"/>
<path id="Vector" d="M3.122 5.12719C3.20013 5.04908 3.30609 5.00519 3.41658 5.00519C3.52706 5.00519 3.63303 5.04908 3.71116 5.12719L5.91658 7.33261L8.122 5.12719C8.16043 5.08739 8.20641 5.05565 8.25724 5.03381C8.30808 5.01198 8.36275 5.00048 8.41808 5C8.4734 4.99952 8.52827 5.01006 8.57948 5.03101C8.63068 5.05196 8.67721 5.0829 8.71633 5.12202C8.75545 5.16115 8.78639 5.20767 8.80734 5.25887C8.82829 5.31008 8.83883 5.36495 8.83835 5.42027C8.83787 5.4756 8.82638 5.53027 8.80454 5.58111C8.7827 5.63194 8.75096 5.67792 8.71116 5.71636L6.21116 8.21636C6.13303 8.29447 6.02706 8.33835 5.91658 8.33835C5.80609 8.33835 5.70013 8.29447 5.622 8.21636L3.122 5.71636C3.04388 5.63822 3 5.53226 3 5.42177C3 5.31129 3.04388 5.20533 3.122 5.12719Z" fill="white"/>
</g>
</svg>
