<svg width="31" height="31" viewBox="0 0 31 31" fill="none" xmlns="http://www.w3.org/2000/svg">
<path fill-rule="evenodd" clip-rule="evenodd" d="M22.3036 0.931752C24.4014 0.800637 26.4701 1.52905 28.0289 2.95674C29.4566 4.51554 30.1851 6.58424 30.0685 8.69664V22.3034C30.1996 24.4158 29.4566 26.4845 28.0435 28.0433C26.4847 29.471 24.4014 30.1994 22.3036 30.0683H8.69671C6.58429 30.1994 4.51558 29.471 2.95676 28.0433C1.52906 26.4845 0.800644 24.4158 0.931759 22.3034V8.69664C0.800644 6.58424 1.52906 4.51554 2.95676 2.95674C4.51558 1.52905 6.58429 0.800637 8.69671 0.931752H22.3036ZM14.0142 22.5656L23.8187 12.732C24.7074 11.8288 24.7074 10.372 23.8187 9.48332L21.9248 7.58945C21.0216 6.68621 19.5647 6.68621 18.6615 7.58945L17.6854 8.58009C17.5397 8.72577 17.5397 8.97343 17.6854 9.11911C17.6854 9.11911 20.0018 11.4209 20.0455 11.4792C20.2058 11.654 20.3077 11.8871 20.3077 12.1493C20.3077 12.6738 19.8852 13.1108 19.3462 13.1108C19.0986 13.1108 18.8655 13.0088 18.7052 12.8486L16.2723 10.4303C16.1557 10.3137 15.9518 10.3137 15.8352 10.4303L8.88612 17.3793C8.40537 17.8601 8.12857 18.5011 8.114 19.1858L8.02659 22.6385C8.02659 22.8278 8.08486 23.0027 8.21598 23.1338C8.34709 23.2649 8.52191 23.3377 8.7113 23.3377H12.1349C12.8342 23.3377 13.5043 23.0609 14.0142 22.5656Z" fill="#4B4B4B"/>
</svg>
