<svg width="16" height="15" viewBox="0 0 16 15" fill="none" xmlns="http://www.w3.org/2000/svg">
<path d="M10 14.0625H8.5C8.23486 14.0623 7.98066 13.9634 7.79319 13.7876C7.60571 13.6119 7.50026 13.3736 7.5 13.125V10.7813H8.5V13.125H10V10.7813H11V8.90625C10.9999 8.78197 10.9471 8.66281 10.8534 8.57493C10.7597 8.48705 10.6326 8.43762 10.5 8.4375H6.14L5.14 5.625H2C1.86743 5.62512 1.74033 5.67455 1.64659 5.76243C1.55285 5.85031 1.50013 5.96947 1.5 6.09375V8.90625H2.5V13.125H4.5V9.84375H5.5V13.125C5.49974 13.3736 5.39429 13.6119 5.20681 13.7876C5.01934 13.9634 4.76514 14.0623 4.5 14.0625H2.5C2.23486 14.0623 1.98066 13.9634 1.79319 13.7876C1.60571 13.6119 1.50026 13.3736 1.5 13.125V9.84375C1.23486 9.8435 0.980665 9.74465 0.793186 9.56889C0.605707 9.39313 0.500265 9.15481 0.5 8.90625V6.09375C0.500397 5.7209 0.65856 5.36344 0.939778 5.09979C1.221 4.83615 1.6023 4.68787 2 4.6875H5.14C5.34985 4.68738 5.55442 4.74921 5.72468 4.86423C5.89493 4.97925 6.02222 5.14161 6.0885 5.32828L6.86 7.5H10.5C10.8977 7.50037 11.279 7.64865 11.5602 7.91229C11.8414 8.17594 11.9996 8.5334 12 8.90625V10.7813C11.9997 11.0298 11.8943 11.2681 11.7068 11.4439C11.5193 11.6197 11.2651 11.7185 11 11.7188V13.125C10.9997 13.3736 10.8943 13.6119 10.7068 13.7876C10.5193 13.9634 10.2651 14.0623 10 14.0625ZM14 14.0625H13V8.90625H14.5V6.09375C14.4999 5.96947 14.4471 5.85031 14.3534 5.76243C14.2597 5.67455 14.1326 5.62512 14 5.625H12V4.6875H14C14.3977 4.68787 14.779 4.83615 15.0602 5.09979C15.3414 5.36344 15.4996 5.7209 15.5 6.09375V8.90625C15.4997 9.15481 15.3943 9.39313 15.2068 9.56889C15.0193 9.74465 14.7651 9.8435 14.5 9.84375H14V14.0625ZM3.5 4.21875C3.10444 4.21875 2.71776 4.10878 2.38886 3.90276C2.05996 3.69673 1.80362 3.40389 1.65224 3.06128C1.50087 2.71867 1.46126 2.34167 1.53843 1.97796C1.6156 1.61424 1.80608 1.28015 2.08579 1.01793C2.36549 0.755702 2.72186 0.577126 3.10982 0.504778C3.49778 0.432431 3.89991 0.469562 4.26537 0.611477C4.63082 0.753391 4.94318 0.993714 5.16294 1.30206C5.3827 1.6104 5.5 1.97291 5.5 2.34375C5.49934 2.84084 5.28841 3.31739 4.91348 3.66889C4.53855 4.02039 4.03023 4.21813 3.5 4.21875ZM3.5 1.40625C3.30222 1.40625 3.10888 1.46123 2.94443 1.56425C2.77998 1.66726 2.65181 1.81368 2.57612 1.98499C2.50043 2.15629 2.48063 2.34479 2.51921 2.52665C2.5578 2.70851 2.65304 2.87555 2.79289 3.00666C2.93275 3.13778 3.11093 3.22706 3.30491 3.26324C3.49889 3.29941 3.69996 3.28085 3.88268 3.20989C4.06541 3.13893 4.22159 3.01877 4.33147 2.8646C4.44135 2.71043 4.5 2.52917 4.5 2.34375C4.49974 2.09519 4.39429 1.85687 4.20681 1.68111C4.01934 1.50535 3.76514 1.4065 3.5 1.40625ZM12.5 4.21875C12.1044 4.21875 11.7178 4.10878 11.3889 3.90276C11.06 3.69673 10.8036 3.40389 10.6522 3.06128C10.5009 2.71867 10.4613 2.34167 10.5384 1.97796C10.6156 1.61424 10.8061 1.28015 11.0858 1.01793C11.3655 0.755702 11.7219 0.577126 12.1098 0.504778C12.4978 0.432431 12.8999 0.469562 13.2654 0.611477C13.6308 0.753391 13.9432 0.993714 14.1629 1.30206C14.3827 1.6104 14.5 1.97291 14.5 2.34375C14.4993 2.84084 14.2884 3.31739 13.9135 3.66889C13.5386 4.02039 13.0302 4.21813 12.5 4.21875ZM12.5 1.40625C12.3022 1.40625 12.1089 1.46123 11.9444 1.56425C11.78 1.66726 11.6518 1.81368 11.5761 1.98499C11.5004 2.15629 11.4806 2.34479 11.5192 2.52665C11.5578 2.70851 11.653 2.87555 11.7929 3.00666C11.9327 3.13778 12.1109 3.22706 12.3049 3.26324C12.4989 3.29941 12.7 3.28085 12.8827 3.20989C13.0654 3.13893 13.2216 3.01877 13.3315 2.8646C13.4414 2.71043 13.5 2.52917 13.5 2.34375C13.4997 2.09519 13.3943 1.85687 13.2068 1.68111C13.0193 1.50535 12.7651 1.4065 12.5 1.40625Z" fill="black"/>
</svg>
