<svg width="16" height="14" viewBox="0 0 16 14" fill="none" xmlns="http://www.w3.org/2000/svg">
<g id="Group">
<path id="Line" d="M6.60851 11.3274H1.35791" stroke="#101010" stroke-width="1.5" stroke-linecap="round" stroke-linejoin="round"/>
<path id="Line_2" d="M8.95044 3.25023H14.201" stroke="#101010" stroke-width="1.5" stroke-linecap="round" stroke-linejoin="round"/>
<path id="Vector" fill-rule="evenodd" clip-rule="evenodd" d="M5.27195 3.20521C5.27195 2.1255 4.39015 1.25 3.30266 1.25C2.21517 1.25 1.33337 2.1255 1.33337 3.20521C1.33337 4.28492 2.21517 5.16042 3.30266 5.16042C4.39015 5.16042 5.27195 4.28492 5.27195 3.20521Z" stroke="#101010" stroke-width="1.5" stroke-linecap="round" stroke-linejoin="round"/>
<path id="Vector_2" fill-rule="evenodd" clip-rule="evenodd" d="M14.6667 11.2948C14.6667 10.2151 13.7856 9.3396 12.6981 9.3396C11.6099 9.3396 10.7281 10.2151 10.7281 11.2948C10.7281 12.3745 11.6099 13.25 12.6981 13.25C13.7856 13.25 14.6667 12.3745 14.6667 11.2948Z" stroke="#101010" stroke-width="1.5" stroke-linecap="round" stroke-linejoin="round"/>
</g>
</svg>
