<svg width="23" height="19" viewBox="0 0 23 19" fill="none" xmlns="http://www.w3.org/2000/svg">
<path id="Vector" d="M1 17.8278H21M5.36 13.2278L3 12.8278L1 8.82776L2.1 8.27776C2.37916 8.13709 2.6874 8.06382 3 8.06382C3.3126 8.06382 3.62084 8.13709 3.9 8.27776L4.07 8.37776C4.34916 8.51843 4.6574 8.5917 4.97 8.5917C5.2826 8.5917 5.59084 8.51843 5.87 8.37776L7 7.82776L4 1.82776L4.9 1.37776C5.23267 1.21411 5.60429 1.14614 5.97335 1.18146C6.34242 1.21678 6.6944 1.35398 6.99 1.57776L11.01 4.57776C11.3066 4.80347 11.6604 4.9418 12.0315 4.97714C12.4025 5.01248 12.7761 4.94342 13.11 4.77776L17.3 2.71776C17.8354 2.44785 18.4523 2.38724 19.03 2.54776L20 2.82776C20.2004 2.88342 20.3859 2.98303 20.543 3.11936C20.7001 3.2557 20.8248 3.42532 20.9082 3.6159C20.9915 3.80649 21.0313 4.01324 21.0247 4.22114C21.0181 4.42903 20.9652 4.63285 20.87 4.81776L20.49 5.57776C20.26 6.03776 19.89 6.41776 19.42 6.65776L6.58 13.0278C6.20245 13.2148 5.77547 13.2778 5.36 13.2078V13.2278Z" stroke="#3BB77E" stroke-width="2" stroke-linecap="round" stroke-linejoin="round"/>
</svg>
