<svg width="21" height="22" viewBox="0 0 21 22" fill="none" xmlns="http://www.w3.org/2000/svg">
<path d="M7.93483 19.7733V16.7156C7.93483 15.9351 8.57222 15.3023 9.35848 15.3023H12.2327C12.6102 15.3023 12.9723 15.4512 13.2393 15.7163C13.5063 15.9813 13.6563 16.3408 13.6563 16.7156V19.7733C13.6539 20.0978 13.7821 20.4099 14.0124 20.6402C14.2427 20.8705 14.5561 21 14.883 21H16.8439C17.7597 21.0024 18.6388 20.6428 19.2872 20.0008C19.9356 19.3588 20.3001 18.487 20.3 17.5778V8.86686C20.3 8.13246 19.9721 7.43584 19.4047 6.96467L12.7341 1.67587C11.5737 0.748562 9.91116 0.778502 8.78544 1.74698L2.26706 6.96467C1.67279 7.42195 1.3176 8.12064 1.30005 8.86686V17.5689C1.30005 19.4639 2.84743 21 4.75622 21H6.67234C7.35128 21 7.90305 20.4562 7.90797 19.7822L7.93483 19.7733Z" stroke="#9E9E9E"/>
</svg>
