<svg width="32" height="22" viewBox="0 0 32 22" fill="none" xmlns="http://www.w3.org/2000/svg">
<g clip-path="url(#clip0_1102_4486)">
<path d="M29.8271 22H2.4609C1.80975 21.9962 1.18647 21.7648 0.725925 21.356C0.26538 20.9472 0.00459811 20.3938 0 19.8156L0 6.17742C0.00432492 5.59917 0.264845 5.04569 0.725197 4.63672C1.18555 4.22775 1.80871 3.99617 2.45987 3.99208H29.8271C30.4783 3.99592 31.1015 4.22727 31.5621 4.63607C32.0226 5.04488 32.2834 5.59826 32.288 6.1765V19.8174C32.288 20.104 32.2244 20.3879 32.1009 20.6527C31.9774 20.9175 31.7964 21.1581 31.5681 21.3607C31.3399 21.5634 31.069 21.7242 30.7708 21.8339C30.4726 21.9435 30.153 22 29.8302 22H29.8271ZM2.4609 5.44958H2.45368C2.23822 5.44958 2.03159 5.52559 1.87923 5.66088C1.72688 5.79617 1.64129 5.97967 1.64129 6.171V19.8248C1.64129 20.2235 2.00465 20.5462 2.45368 20.5462H29.8354C30.0508 20.5462 30.2575 20.4702 30.4098 20.3349C30.5622 20.1996 30.6477 20.0161 30.6477 19.8248V6.171C30.6477 5.97967 30.5622 5.79617 30.4098 5.66088C30.2575 5.52559 30.0508 5.44958 29.8354 5.44958H29.8271H2.4609ZM23.3961 1.74808V1.75175C23.3961 1.95937 23.3033 2.15849 23.1379 2.3053C22.9726 2.45211 22.7484 2.53458 22.5146 2.53458H9.77549C9.54168 2.53458 9.31746 2.45211 9.15214 2.3053C8.98681 2.15849 8.89394 1.95937 8.89394 1.75175V1.74442C8.89394 1.31175 9.28929 0.961583 9.77549 0.961583H22.5105C22.7419 0.970543 22.9612 1.05616 23.1252 1.20156C23.2891 1.34697 23.3858 1.54254 23.3961 1.74808ZM26.4805 2.33108V2.34392C26.4805 2.99658 25.8849 3.5255 25.1499 3.5255H25.1345H25.121C24.9463 3.5255 24.7733 3.49494 24.6118 3.43556C24.4504 3.37618 24.3037 3.28914 24.1802 3.17942C24.0566 3.0697 23.9586 2.93945 23.8917 2.79609C23.8249 2.65273 23.7905 2.49908 23.7905 2.34392V2.33017V1.18158C23.7905 0.528917 24.3861 0 25.121 0H25.1365H25.1499C25.8849 0 26.4805 0.528917 26.4805 1.18158V1.19533V2.33108ZM8.49858 2.33108V2.34392C8.49858 2.99658 7.90297 3.5255 7.168 3.5255H7.15252H7.1391C6.78621 3.5255 6.44777 3.40101 6.19824 3.17942C5.9487 2.95783 5.80852 2.65729 5.80852 2.34392V2.33017V1.18158C5.80852 0.528917 6.40413 0 7.1391 0H7.15458H7.15355H7.168C7.90297 0 8.49858 0.528917 8.49858 1.18158V1.19533V2.33108ZM30.7799 1.74808V1.75175C30.7799 1.95937 30.687 2.15849 30.5217 2.3053C30.3564 2.45211 30.1321 2.53458 29.8983 2.53458H27.6924C27.4586 2.53458 27.2344 2.45211 27.069 2.3053C26.9037 2.15849 26.8108 1.95937 26.8108 1.75175V1.74442C26.8108 1.31175 27.2062 0.961583 27.6924 0.961583H29.8942C30.1257 0.970543 30.345 1.05616 30.5089 1.20156C30.6728 1.34697 30.7695 1.54254 30.7799 1.74808ZM5.44723 1.74808V1.75175C5.44723 1.95937 5.35435 2.15849 5.18903 2.3053C5.0237 2.45211 4.79948 2.53458 4.56568 2.53458H2.39174C2.15794 2.53458 1.93372 2.45211 1.76839 2.3053C1.60307 2.15849 1.51019 1.95937 1.51019 1.75175V1.74442C1.51019 1.31175 1.90555 0.961583 2.39174 0.961583H4.59355C4.82173 0.971609 5.03701 1.05857 5.19545 1.20473C5.3539 1.35088 5.44461 1.54522 5.44723 1.74808Z" fill="white"/>
<path d="M5.8404 13.3448V15.1781H7.84195V13.3448H9.05588V18.1243H7.84195V16.1131H5.8404V18.1243H4.62646V13.3448H5.8404ZM15.0616 15.6777C15.099 15.9979 15.0603 16.3216 14.9479 16.6277C14.8355 16.9338 14.652 17.2155 14.4092 17.4546C14.1664 17.6938 13.8697 17.8849 13.5385 18.0157C13.2072 18.1466 12.8486 18.2141 12.4861 18.2141L12.3983 18.2132H12.4025H12.3725C12.0212 18.2133 11.6737 18.1479 11.3527 18.0212C11.0316 17.8944 10.7441 17.7092 10.5088 17.4775C10.2735 17.2458 10.0956 16.9728 9.98668 16.6762C9.87777 16.3796 9.84024 16.0659 9.87653 15.7556L9.8755 15.7648C9.84521 15.4458 9.88981 15.1247 10.0065 14.8219C10.1231 14.519 10.3093 14.241 10.5533 14.0053C10.7972 13.7697 11.0935 13.5815 11.4236 13.4528C11.7536 13.3241 12.1101 13.2577 12.4706 13.2577H12.5026H12.5005L12.5635 13.2568C12.9119 13.2567 13.2565 13.3212 13.5753 13.4462C13.8941 13.5711 14.18 13.7537 14.4148 13.9823C14.6496 14.2109 14.8281 14.4805 14.9389 14.7738C15.0498 15.0672 15.0905 15.3778 15.0585 15.6859L15.0595 15.6777H15.0616ZM11.1896 15.7354C11.1896 16.6686 11.685 17.3378 12.5016 17.3378C13.3181 17.3378 13.7816 16.6383 13.7816 15.7061C13.7816 14.8316 13.3222 14.1038 12.4696 14.1038C11.6499 14.1019 11.1896 14.8023 11.1896 15.7336V15.7354ZM16.7018 14.2486H15.2587V13.3448H19.3939V14.2486H17.9178V18.1243H16.7039L16.7018 14.2486ZM23.2319 16.0838H21.2634V17.2204H23.493V18.0949H20.0164V13.3448H23.3299V14.2193H21.2303V15.2102H23.1989V16.0847L23.2319 16.0838ZM24.3147 13.3448H25.5287V17.2204H27.6613V18.1243H24.3147V13.3448ZM16.1444 10.2868L14.372 11.1347L14.7023 9.38659L13.2892 8.12801L15.2577 7.86584L16.1434 6.29468L17.029 7.86859L18.9976 8.13076L17.5865 9.38384L17.9168 11.1319L16.1444 10.2868ZM22.2801 10.4893L20.9351 11.1301L21.1973 9.78993L20.1134 8.85768L21.5896 8.68351L22.2781 7.45976L22.9346 8.68351L24.4438 8.85768L23.3609 9.79084L23.5901 11.131L22.2801 10.4893ZM26.1841 10.7231L25.2985 11.131L25.4636 10.2565L24.7421 9.64509L25.7269 9.49843L26.1862 8.71193L26.6136 9.49843L27.5983 9.64509L26.9098 10.2565L27.075 11.131L26.1841 10.7231ZM10.0407 10.4893L11.3527 11.1301L11.0905 9.78993L12.1733 8.85676L10.6972 8.68259L10.0417 7.45976L9.35317 8.68351L7.87601 8.85768L8.95885 9.79084L8.69666 11.131L10.0407 10.4893ZM6.10363 10.7231L6.9893 11.131L6.82414 10.2565L7.54569 9.64509L6.56092 9.49843L6.10259 8.71193L5.67524 9.49843L4.69047 9.64509L5.41201 10.2565L5.24685 11.131L6.10363 10.7231Z" fill="white"/>
</g>
<defs>
<clipPath id="clip0_1102_4486">
<rect width="32" height="22" fill="white"/>
</clipPath>
</defs>
</svg>
