<svg width="129" height="75" viewBox="0 0 129 75" fill="none" xmlns="http://www.w3.org/2000/svg">
<path d="M108 39C108 52.8071 96.8071 64 83 64C69.1929 64 58 52.8071 58 39C58 25.1929 69.1929 14 83 14C96.8071 14 108 25.1929 108 39Z" fill="#3BB77E"/>
<path d="M34 39C34 43.9706 29.9706 48 25 48C20.0294 48 16 43.9706 16 39C16 34.0294 20.0294 30 25 30C29.9706 30 34 34.0294 34 39Z" fill="#3BB77E"/>
<path d="M33.1034 39L32.6782 36.875L31.8276 34.75L31.4023 33.9L30.5517 33.05L29.7011 32.2L28 30.5L34.8046 33.9L36.5057 34.325L38.2069 34.75L40.3333 35.175H42.0345H44.1609L45.8621 34.75L47.5632 34.325L50.1149 33.475L52.6667 32.2L55.2184 30.5L57.7701 28.375L60.3218 26.25L65 22L61.1724 27.95L59.8966 31.35L59.046 34.75L58.6207 39L59.046 43.25L59.8966 46.65L61.1724 50.05L65 56L59.8966 51.75L57.7701 50.05L55.2184 48.35L52.6667 47.075L50.1149 45.8L47.5632 44.525L45.8621 44.1L44.1609 43.675H42.0345H40.3333L38.2069 44.1L36.5057 44.525L34.8046 44.95L28 47.5L29.7011 45.8L30.5517 44.95L31.4023 44.1L31.8276 43.25L32.6782 41.125L33.1034 39Z" fill="#3BB77E"/>
<circle cx="25" cy="39" r="7" fill="#D9D9D9"/>
<g clip-path="url(#clip0_1102_4481)">
<path d="M96.8271 52H69.4609C68.8097 51.9962 68.1865 51.7648 67.7259 51.356C67.2654 50.9472 67.0046 50.3938 67 49.8156V36.1774C67.0043 35.5992 67.2648 35.0457 67.7252 34.6367C68.1855 34.2277 68.8087 33.9962 69.4599 33.9921H96.8271C97.4783 33.9959 98.1015 34.2273 98.5621 34.6361C99.0226 35.0449 99.2834 35.5983 99.288 36.1765V49.8174C99.288 50.104 99.2244 50.3879 99.1009 50.6527C98.9774 50.9175 98.7964 51.1581 98.5681 51.3607C98.3399 51.5634 98.069 51.7242 97.7708 51.8339C97.4726 51.9435 97.153 52 96.8302 52H96.8271ZM69.4609 35.4496H69.4537C69.2382 35.4496 69.0316 35.5256 68.8792 35.6609C68.7269 35.7962 68.6413 35.9797 68.6413 36.171V49.8248C68.6413 50.2235 69.0046 50.5462 69.4537 50.5462H96.8354C97.0508 50.5462 97.2575 50.4702 97.4098 50.3349C97.5622 50.1996 97.6477 50.0161 97.6477 49.8248V36.171C97.6477 35.9797 97.5622 35.7962 97.4098 35.6609C97.2575 35.5256 97.0508 35.4496 96.8354 35.4496H96.8271H69.4609ZM90.3961 31.7481V31.7517C90.3961 31.9594 90.3033 32.1585 90.1379 32.3053C89.9726 32.4521 89.7484 32.5346 89.5146 32.5346H76.7755C76.5417 32.5346 76.3175 32.4521 76.1521 32.3053C75.9868 32.1585 75.8939 31.9594 75.8939 31.7517V31.7444C75.8939 31.3118 76.2893 30.9616 76.7755 30.9616H89.5105C89.7419 30.9705 89.9612 31.0562 90.1252 31.2016C90.2891 31.347 90.3858 31.5425 90.3961 31.7481ZM93.4805 32.3311V32.3439C93.4805 32.9966 92.8849 33.5255 92.1499 33.5255H92.1345H92.121C91.9463 33.5255 91.7733 33.4949 91.6118 33.4356C91.4504 33.3762 91.3037 33.2891 91.1802 33.1794C91.0566 33.0697 90.9586 32.9394 90.8917 32.7961C90.8249 32.6527 90.7905 32.4991 90.7905 32.3439V32.3302V31.1816C90.7905 30.5289 91.3861 30 92.121 30H92.1365H92.1499C92.8849 30 93.4805 30.5289 93.4805 31.1816V31.1953V31.1944V32.3311ZM75.4986 32.3311V32.3439C75.4986 32.9966 74.903 33.5255 74.168 33.5255H74.1525H74.1391C73.7862 33.5255 73.4478 33.401 73.1982 33.1794C72.9487 32.9578 72.8085 32.6573 72.8085 32.3439V32.3302V31.1816C72.8085 30.5289 73.4041 30 74.1391 30H74.1546H74.1535H74.168C74.903 30 75.4986 30.5289 75.4986 31.1816V31.1953V31.1944V32.3311ZM97.7799 31.7481V31.7517C97.7799 31.9594 97.687 32.1585 97.5217 32.3053C97.3564 32.4521 97.1321 32.5346 96.8983 32.5346H94.6924C94.4586 32.5346 94.2344 32.4521 94.069 32.3053C93.9037 32.1585 93.8108 31.9594 93.8108 31.7517V31.7444C93.8108 31.3118 94.2062 30.9616 94.6924 30.9616H96.8942C97.1257 30.9705 97.345 31.0562 97.5089 31.2016C97.6728 31.347 97.7695 31.5425 97.7799 31.7481ZM72.4472 31.7481V31.7517C72.4472 31.9594 72.3543 32.1585 72.189 32.3053C72.0237 32.4521 71.7995 32.5346 71.5657 32.5346H69.3917C69.1579 32.5346 68.9337 32.4521 68.7684 32.3053C68.6031 32.1585 68.5102 31.9594 68.5102 31.7517V31.7444C68.5102 31.3118 68.9055 30.9616 69.3917 30.9616H71.5935C71.8217 30.9716 72.037 31.0586 72.1955 31.2047C72.3539 31.3509 72.4446 31.5452 72.4472 31.7481Z" fill="white"/>
<path d="M72.8404 43.3448V45.1781H74.8419V43.3448H76.0559V48.1243H74.8419V46.1131H72.8404V48.1243H71.6265V43.3448H72.8404ZM82.0616 45.6777C82.099 45.9979 82.0603 46.3216 81.9479 46.6277C81.8355 46.9338 81.652 47.2155 81.4092 47.4546C81.1664 47.6938 80.8697 47.8849 80.5385 48.0157C80.2072 48.1466 79.8486 48.2141 79.4861 48.2141L79.3983 48.2132H79.4025H79.3725C79.0212 48.2133 78.6737 48.1479 78.3527 48.0212C78.0316 47.8944 77.7441 47.7092 77.5088 47.4775C77.2735 47.2458 77.0956 46.9728 76.9867 46.6762C76.8778 46.3796 76.8402 46.0659 76.8765 45.7556L76.8755 45.7648C76.8452 45.4458 76.8898 45.1247 77.0065 44.8219C77.1231 44.519 77.3093 44.241 77.5533 44.0053C77.7972 43.7696 78.0935 43.5815 78.4236 43.4528C78.7536 43.3241 79.1101 43.2577 79.4706 43.2577H79.5026H79.5005L79.5635 43.2568C79.9119 43.2567 80.2565 43.3212 80.5753 43.4462C80.8941 43.5711 81.18 43.7537 81.4148 43.9823C81.6496 44.2109 81.8281 44.4805 81.9389 44.7738C82.0498 45.0672 82.0905 45.3778 82.0585 45.6859L82.0595 45.6777H82.0616ZM78.1896 45.7354C78.1896 46.6686 78.685 47.3378 79.5016 47.3378C80.3181 47.3378 80.7816 46.6383 80.7816 45.7061C80.7816 44.8316 80.3222 44.1038 79.4696 44.1038C78.6499 44.1019 78.1896 44.8023 78.1896 45.7336V45.7354ZM83.7018 44.2486H82.2587V43.3448H86.3939V44.2486H84.9178V48.1243H83.7039L83.7018 44.2486ZM90.2319 46.0838H88.2634V47.2204H90.493V48.0949H87.0164V43.3448H90.3299V44.2193H88.2303V45.2102H90.1989V46.0847L90.2319 46.0838ZM91.3147 43.3448H92.5287V47.2204H94.6613V48.1243H91.3147V43.3448ZM83.1444 40.2868L81.372 41.1347L81.7023 39.3866L80.2892 38.128L82.2577 37.8658L83.1434 36.2947L84.029 37.8686L85.9976 38.1308L84.5865 39.3838L84.9168 41.1319L83.1444 40.2868ZM89.2801 40.4893L87.9351 41.1301L88.1973 39.7899L87.1134 38.8577L88.5896 38.6835L89.2781 37.4598L89.9346 38.6835L91.4438 38.8577L90.3609 39.7908L90.5901 41.131L89.2801 40.4893ZM93.1841 40.7231L92.2985 41.131L92.4636 40.2565L91.7421 39.6451L92.7269 39.4984L93.1862 38.7119L93.6136 39.4984L94.5983 39.6451L93.9098 40.2565L94.075 41.131L93.1841 40.7231ZM77.0407 40.4893L78.3527 41.1301L78.0905 39.7899L79.1733 38.8568L77.6972 38.6826L77.0417 37.4598L76.3532 38.6835L74.876 38.8577L75.9589 39.7908L75.6967 41.131L77.0407 40.4893ZM73.1036 40.7231L73.9893 41.131L73.8241 40.2565L74.5457 39.6451L73.5609 39.4984L73.1026 38.7119L72.6752 39.4984L71.6905 39.6451L72.412 40.2565L72.2469 41.131L73.1036 40.7231Z" fill="white"/>
</g>
<defs>
<clipPath id="clip0_1102_4481">
<rect width="32" height="22" fill="white" transform="translate(67 30)"/>
</clipPath>
</defs>
</svg>
