<svg width="23" height="19" viewBox="0 0 23 19" fill="none" xmlns="http://www.w3.org/2000/svg">
<path id="Vector" d="M1.02539 17.5H21.0254M2.79539 8.28564L1.02539 6.83333L3.02539 3.14103L4.12539 3.59231C4.67539 3.82205 5.02539 4.28154 5.02539 4.78205C5.02539 5.28256 5.37539 5.74205 5.92539 5.97179L7.02539 6.42308L10.0254 1.5L11.0754 1.93487C11.3672 2.05412 11.6191 2.2301 11.809 2.44747C11.999 2.66484 12.1213 2.91702 12.1654 3.18205L12.8854 7.61282C12.9294 7.87785 13.0518 8.13003 13.2418 8.3474C13.4317 8.56477 13.6836 8.74075 13.9754 8.86L18.3754 10.6651C18.7954 10.8456 19.1554 11.1164 19.3854 11.4528L19.9854 12.2979C20.4754 13.02 19.9254 13.9226 18.9254 14.021L17.7454 14.1441C17.2754 14.1933 16.7954 14.1277 16.3754 13.9472L3.31539 8.59744C3.12267 8.51724 2.94706 8.41194 2.79539 8.28564Z" stroke="#3BB77E" stroke-width="2" stroke-linecap="round" stroke-linejoin="round"/>
</svg>
