<svg width="10" height="12" viewBox="0 0 10 12" fill="none" xmlns="http://www.w3.org/2000/svg">
<path d="M5 0.125C6.29293 0.125 7.53291 0.638615 8.44715 1.55285C9.36139 2.46709 9.875 3.70707 9.875 5C9.875 7.06 8.4275 9.305 5.57 11.759C5.41111 11.8955 5.20853 11.9705 4.99906 11.9703C4.7896 11.9701 4.58715 11.8948 4.4285 11.758L4.2395 11.594C1.5085 9.204 0.125 7.014 0.125 5C0.125 3.70707 0.638615 2.46709 1.55285 1.55285C2.46709 0.638615 3.70707 0.125 5 0.125ZM5 0.875C3.90598 0.875 2.85677 1.3096 2.08318 2.08318C1.3096 2.85677 0.875 3.90598 0.875 5C0.875 6.751 2.149 8.7685 4.732 11.0285L4.9185 11.19C4.94118 11.2095 4.97009 11.2202 5 11.2202C5.02991 11.2202 5.05882 11.2095 5.0815 11.19C7.7895 8.864 9.125 6.7925 9.125 5C9.125 4.4583 9.0183 3.9219 8.811 3.42143C8.6037 2.92096 8.29986 2.46623 7.91682 2.08318C7.53377 1.70014 7.07904 1.3963 6.57857 1.189C6.0781 0.981696 5.5417 0.875 5 0.875ZM5 3.125C5.49728 3.125 5.9742 3.32254 6.32583 3.67417C6.67746 4.02581 6.875 4.50272 6.875 5C6.875 5.49728 6.67746 5.97419 6.32583 6.32583C5.9742 6.67746 5.49728 6.875 5 6.875C4.50272 6.875 4.02581 6.67746 3.67417 6.32583C3.32254 5.97419 3.125 5.49728 3.125 5C3.125 4.50272 3.32254 4.02581 3.67417 3.67417C4.02581 3.32254 4.50272 3.125 5 3.125ZM5 3.875C4.70163 3.875 4.41548 3.99353 4.2045 4.2045C3.99353 4.41548 3.875 4.70163 3.875 5C3.875 5.29837 3.99353 5.58452 4.2045 5.7955C4.41548 6.00647 4.70163 6.125 5 6.125C5.29837 6.125 5.58452 6.00647 5.7955 5.7955C6.00647 5.58452 6.125 5.29837 6.125 5C6.125 4.70163 6.00647 4.41548 5.7955 4.2045C5.58452 3.99353 5.29837 3.875 5 3.875Z" fill="black"/>
</svg>
