<svg width="16" height="12" viewBox="0 0 16 12" fill="none" xmlns="http://www.w3.org/2000/svg">
<path d="M13.7516 2.80215C13.7149 2.71438 13.6434 2.6379 13.5474 2.58363C13.4514 2.52936 13.3358 2.50009 13.2172 2.5H11.9375V0.96875C11.9375 0.726758 11.6861 0.53125 11.375 0.53125H4.625C4.31387 0.53125 4.0625 0.726758 4.0625 0.96875V2.5H2.78281C2.66409 2.49988 2.54837 2.52907 2.45234 2.58337C2.35631 2.63767 2.28491 2.71427 2.24844 2.80215L0.96875 5.86328V11.0312C0.96875 11.2732 1.22012 11.4688 1.53125 11.4688H14.4688C14.7799 11.4688 15.0312 11.2732 15.0312 11.0312V5.86328L13.7516 2.80215ZM5.32812 1.51562H10.6719V2.5H5.32812V1.51562ZM13.7656 10.4844H2.23438V6.01914L3.29434 3.48438H12.7057L13.7656 6.01914V10.4844ZM10.4609 6.82031H8.5625V5.34375C8.5625 5.28359 8.49922 5.23438 8.42188 5.23438H7.57812C7.50078 5.23438 7.4375 5.28359 7.4375 5.34375V6.82031H5.53906C5.46172 6.82031 5.39844 6.86953 5.39844 6.92969V7.58594C5.39844 7.64609 5.46172 7.69531 5.53906 7.69531H7.4375V9.17188C7.4375 9.23203 7.50078 9.28125 7.57812 9.28125H8.42188C8.49922 9.28125 8.5625 9.23203 8.5625 9.17188V7.69531H10.4609C10.5383 7.69531 10.6016 7.64609 10.6016 7.58594V6.92969C10.6016 6.86953 10.5383 6.82031 10.4609 6.82031Z" fill="white"/>
</svg>
