<svg width="14" height="14" viewBox="0 0 14 14" fill="none" xmlns="http://www.w3.org/2000/svg">
<path d="M5.879 8.4375H3V10.3125H3.879L2.879 11.25H2.5C2.36739 11.25 2.24021 11.2006 2.14645 11.1127C2.05268 11.0248 2 10.9056 2 10.7812V7.96875C2 7.84443 2.05268 7.7252 2.14645 7.63729C2.24021 7.54939 2.36739 7.5 2.5 7.5H6.879L5.879 8.4375ZM8.121 10.3125H10V8.55094L11.121 7.5H13.5C13.6326 7.5 13.7598 7.54939 13.8536 7.63729C13.9473 7.7252 14 7.84443 14 7.96875V10.7812C14 10.9056 13.9473 11.0248 13.8536 11.1127C13.7598 11.2006 13.6326 11.25 13.5 11.25H7.121L8.121 10.3125ZM11 8.4375V10.3125H13V8.4375H11ZM10.536 5.39719L11.243 6.06L3.464 13.3528L2.757 12.69L10.536 5.39719ZM3 0.9375H4V5.625H3V0.9375ZM1 2.8125H2V5.625H1V2.8125ZM0 7.5H1V11.25H0V7.5Z" fill="black"/>
</svg>
