<svg width="18" height="5" viewBox="0 0 18 5" fill="none" xmlns="http://www.w3.org/2000/svg">
<path d="M2.3334 0.274089C2.62072 0.271641 2.9057 0.325761 3.17209 0.433358C3.43847 0.540955 3.68103 0.699923 3.88593 0.901184C4.09082 1.10244 4.25403 1.34206 4.36624 1.60634C4.47845 1.87063 4.53747 2.15441 4.53991 2.44148C4.54236 2.72855 4.48819 3.0133 4.38049 3.27946C4.2728 3.54561 4.1137 3.78797 3.91226 3.9927C3.71082 4.19742 3.471 4.36049 3.20649 4.47261C2.94198 4.58473 2.65796 4.6437 2.37064 4.64615C1.79038 4.65109 1.23191 4.42552 0.818113 4.01905C0.404312 3.61259 0.169066 3.05852 0.164128 2.47875C0.15919 1.89898 0.384963 1.34099 0.79178 0.927539C1.1986 0.514084 1.75314 0.279031 2.3334 0.274089ZM8.89708 0.21818C9.18439 0.215733 9.46938 0.269853 9.73576 0.37745C10.0021 0.485047 10.2447 0.644015 10.4496 0.845276C10.6545 1.04654 10.8177 1.28615 10.9299 1.55043C11.0421 1.81472 11.1011 2.0985 11.1036 2.38557C11.106 2.67265 11.0519 2.95739 10.9442 3.22355C10.8365 3.48971 10.6774 3.73207 10.4759 3.93679C10.2745 4.14151 10.0347 4.30458 9.77017 4.4167C9.50566 4.52882 9.22164 4.58779 8.93432 4.59024C8.35405 4.59518 7.79559 4.36961 7.38179 3.96314C6.96799 3.55668 6.73274 3.00262 6.72781 2.42285C6.72287 1.84307 6.94864 1.28509 7.35546 0.871631C7.76227 0.458176 8.31681 0.223123 8.89708 0.21818ZM15.4608 0.162272C15.7481 0.159825 16.0331 0.213944 16.2994 0.321542C16.5658 0.429139 16.8084 0.588106 17.0133 0.789367C17.2182 0.990628 17.3814 1.23024 17.4936 1.49453C17.6058 1.75881 17.6648 2.04259 17.6673 2.32966C17.6697 2.61674 17.6155 2.90148 17.5078 3.16764C17.4002 3.4338 17.241 3.67616 17.0396 3.88088C16.8382 4.0856 16.5984 4.24868 16.3338 4.3608C16.0693 4.47292 15.7853 4.53188 15.498 4.53433C14.9177 4.53927 14.3593 4.3137 13.9455 3.90723C13.5317 3.50077 13.2964 2.94671 13.2915 2.36694C13.2865 1.78717 13.5123 1.22918 13.9191 0.815723C14.326 0.402268 14.8805 0.167215 15.4608 0.162272Z" fill="white"/>
</svg>
