<svg width="26" height="26" viewBox="0 0 26 26" fill="none" xmlns="http://www.w3.org/2000/svg">
<path d="M12.9999 23.7608C10.8716 23.7608 8.79113 23.1297 7.02154 21.9472C5.25194 20.7648 3.87271 19.0842 3.05825 17.118C2.2438 15.1517 2.0307 12.9881 2.44591 10.9007C2.86111 8.81331 3.88597 6.89593 5.39089 5.39101C6.89581 3.8861 8.81319 2.86123 10.9006 2.44603C12.988 2.03082 15.1516 2.24392 17.1179 3.05838C19.0841 3.87283 20.7647 5.25206 21.9471 7.02166C23.1295 8.79126 23.7606 10.8717 23.7606 13C23.7575 15.853 22.6228 18.5882 20.6054 20.6055C18.5881 22.6229 15.8529 23.7576 12.9999 23.7608ZM12.9999 3.3226C11.0859 3.3226 9.21485 3.89017 7.62341 4.95353C6.03196 6.0169 4.79158 7.52831 4.05912 9.29662C3.32666 11.0649 3.13502 13.0107 3.50842 14.888C3.88183 16.7652 4.80351 18.4896 6.15692 19.843C7.51033 21.1964 9.23469 22.1181 11.1119 22.4915C12.9892 22.8649 14.935 22.6732 16.7033 21.9408C18.4716 21.2083 19.983 19.9679 21.0464 18.3765C22.1097 16.7851 22.6773 14.914 22.6773 13C22.6744 10.4343 21.6539 7.97446 19.8397 6.16021C18.0254 4.34597 15.5656 3.32546 12.9999 3.3226Z" fill="white"/>
<path d="M13.6164 9.20825H11.7206C11.6138 9.20811 11.5081 9.22903 11.4095 9.26981C11.3108 9.31059 11.2212 9.37043 11.1457 9.44591C11.0703 9.52139 11.0104 9.61101 10.9696 9.70965C10.9289 9.80829 10.9079 9.91401 10.9081 10.0208V16.2391C10.9081 16.3827 10.9651 16.5205 11.0667 16.6221C11.1683 16.7237 11.3061 16.7808 11.4497 16.7808C11.5934 16.7808 11.7312 16.7237 11.8328 16.6221C11.9343 16.5205 11.9914 16.3827 11.9914 16.2391V14.6249H13.6164C14.3347 14.6249 15.0236 14.3396 15.5315 13.8317C16.0394 13.3238 16.3247 12.6349 16.3247 11.9166C16.3247 11.1983 16.0394 10.5094 15.5315 10.0015C15.0236 9.49359 14.3347 9.20825 13.6164 9.20825ZM13.6164 13.5416H11.9914V10.2916H13.6164C14.0474 10.2916 14.4607 10.4628 14.7655 10.7675C15.0702 11.0723 15.2414 11.4856 15.2414 11.9166C15.2414 12.3476 15.0702 12.7609 14.7655 13.0656C14.4607 13.3704 14.0474 13.5416 13.6164 13.5416Z" fill="white"/>
</svg>
