<svg width="17" height="12" viewBox="0 0 17 12" fill="none" xmlns="http://www.w3.org/2000/svg">
<path d="M16.2562 6.98741C16.2004 7.02927 16.1369 7.05973 16.0693 7.07704C16.0017 7.09436 15.9314 7.09819 15.8623 7.08833C15.7933 7.07846 15.7268 7.05509 15.6668 7.01954C15.6068 6.984 15.5543 6.93698 15.5125 6.88117C15.1923 6.45076 14.7755 6.10155 14.2957 5.86164C13.8158 5.62173 13.2864 5.49783 12.75 5.49992C12.6455 5.49991 12.5433 5.4691 12.4563 5.41134C12.3692 5.35358 12.3012 5.27144 12.2605 5.17519C12.233 5.10983 12.2188 5.03961 12.2188 4.96867C12.2188 4.89772 12.233 4.8275 12.2605 4.76214C12.3012 4.66589 12.3692 4.58375 12.4563 4.52599C12.5433 4.46824 12.6455 4.43742 12.75 4.43742C13.048 4.43739 13.3401 4.35377 13.5931 4.19606C13.846 4.03834 14.0496 3.81286 14.1809 3.54521C14.3121 3.27756 14.3656 2.97848 14.3353 2.68194C14.3051 2.3854 14.1923 2.10329 14.0097 1.86764C13.8272 1.632 13.5822 1.45227 13.3027 1.34887C13.0231 1.24547 12.7201 1.22255 12.4282 1.28271C12.1362 1.34287 11.867 1.48369 11.6511 1.68919C11.4352 1.89468 11.2812 2.15661 11.2067 2.44523C11.1892 2.51281 11.1587 2.5763 11.1167 2.63207C11.0747 2.68783 11.0221 2.73478 10.962 2.77024C10.9019 2.8057 10.8354 2.82896 10.7663 2.83871C10.6972 2.84846 10.6268 2.8445 10.5592 2.82706C10.4916 2.80962 10.4281 2.77904 10.3724 2.73706C10.3166 2.69509 10.2697 2.64254 10.2342 2.58241C10.1987 2.52229 10.1755 2.45577 10.1657 2.38666C10.156 2.31754 10.1599 2.24719 10.1774 2.1796C10.2808 1.77938 10.4762 1.40882 10.7481 1.09741C11.0199 0.786004 11.3607 0.542338 11.7433 0.385804C12.1259 0.22927 12.5397 0.164187 12.9519 0.195736C13.364 0.227285 13.7631 0.354593 14.1174 0.567532C14.4717 0.780471 14.7715 1.07316 14.9927 1.42232C15.214 1.77147 15.3508 2.16745 15.3921 2.57876C15.4334 2.99006 15.3781 3.40532 15.2307 3.79151C15.0833 4.17771 14.8478 4.52416 14.5429 4.80331C15.2653 5.11609 15.8933 5.61242 16.3644 6.243C16.4063 6.29895 16.4367 6.36262 16.4539 6.43034C16.4711 6.49806 16.4748 6.56852 16.4648 6.63767C16.4547 6.70682 16.4311 6.7733 16.3953 6.83332C16.3595 6.89333 16.3123 6.9457 16.2562 6.98741ZM12.6782 11.078C12.7167 11.1385 12.7425 11.2061 12.7541 11.2768C12.7657 11.3475 12.7629 11.4198 12.7459 11.4894C12.7289 11.559 12.6979 11.6244 12.6549 11.6818C12.6119 11.7391 12.5578 11.7871 12.4958 11.823C12.4337 11.8588 12.3651 11.8818 12.294 11.8904C12.2228 11.8991 12.1507 11.8932 12.0819 11.8733C12.0131 11.8533 11.949 11.8196 11.8936 11.7743C11.8381 11.7289 11.7924 11.6728 11.7592 11.6093C11.4245 11.0426 10.9479 10.573 10.3763 10.2468C9.8048 9.92053 9.15806 9.74895 8.49996 9.74895C7.84185 9.74895 7.19511 9.92053 6.62356 10.2468C6.05201 10.573 5.57539 11.0426 5.24074 11.6093C5.20752 11.6728 5.16182 11.7289 5.10636 11.7743C5.0509 11.8196 4.98683 11.8533 4.91802 11.8733C4.84921 11.8932 4.77707 11.8991 4.70594 11.8904C4.63482 11.8818 4.56617 11.8588 4.50414 11.823C4.44211 11.7871 4.38797 11.7391 4.34499 11.6818C4.302 11.6244 4.27105 11.559 4.25401 11.4894C4.23696 11.4198 4.23417 11.3475 4.2458 11.2768C4.25743 11.2061 4.28324 11.1385 4.32167 11.078C4.83672 10.1931 5.62204 9.49669 6.56222 9.09116C6.03318 8.68611 5.64437 8.12546 5.45045 7.48801C5.25652 6.85055 5.26723 6.16836 5.48107 5.53731C5.69491 4.90625 6.10112 4.35808 6.64262 3.96983C7.18411 3.58159 7.83366 3.37279 8.49996 3.37279C9.16625 3.37279 9.8158 3.58159 10.3573 3.96983C10.8988 4.35808 11.305 4.90625 11.5188 5.53731C11.7327 6.16836 11.7434 6.85055 11.5495 7.48801C11.3555 8.12546 10.9667 8.68611 10.4377 9.09116C11.3779 9.49669 12.1632 10.1931 12.6782 11.078ZM8.49996 8.68742C8.92024 8.68742 9.33109 8.56279 9.68054 8.32929C10.03 8.09579 10.3024 7.76391 10.4632 7.37562C10.624 6.98732 10.6661 6.56006 10.5841 6.14785C10.5021 5.73564 10.2997 5.357 10.0026 5.05981C9.70537 4.76263 9.32673 4.56024 8.91452 4.47825C8.50231 4.39625 8.07505 4.43833 7.68675 4.59917C7.29846 4.76001 6.96658 5.03237 6.73308 5.38183C6.49958 5.73128 6.37496 6.14213 6.37496 6.56242C6.37496 7.126 6.59884 7.6665 6.99735 8.06502C7.39587 8.46353 7.93637 8.68742 8.49996 8.68742ZM4.78121 4.96867C4.78121 4.82777 4.72523 4.69264 4.62561 4.59301C4.52598 4.49339 4.39085 4.43742 4.24996 4.43742C3.95188 4.43739 3.65978 4.35377 3.40684 4.19606C3.1539 4.03834 2.95026 3.81286 2.81905 3.54521C2.68784 3.27756 2.63432 2.97848 2.66457 2.68194C2.69482 2.3854 2.80762 2.10329 2.99017 1.86764C3.17271 1.632 3.41768 1.45227 3.69726 1.34887C3.97683 1.24547 4.27979 1.22255 4.57174 1.28271C4.86368 1.34287 5.13291 1.48369 5.34883 1.68919C5.56475 1.89468 5.71872 2.15661 5.79324 2.44523C5.82846 2.58172 5.91646 2.69863 6.03789 2.77024C6.15931 2.84185 6.3042 2.86229 6.4407 2.82706C6.57719 2.79184 6.6941 2.70384 6.76571 2.58241C6.83732 2.46099 6.85776 2.3161 6.82253 2.1796C6.7191 1.77938 6.52369 1.40882 6.25185 1.09741C5.98 0.786004 5.63923 0.542338 5.25664 0.385804C4.87406 0.22927 4.46022 0.164187 4.04805 0.195736C3.63589 0.227285 3.23677 0.354593 2.88247 0.567532C2.52816 0.780471 2.22845 1.07316 2.00716 1.42232C1.78588 1.77147 1.64914 2.16745 1.60783 2.57876C1.56651 2.99006 1.62176 3.40532 1.76918 3.79151C1.9166 4.17771 2.15211 4.52416 2.45699 4.80331C1.73534 5.11638 1.10809 5.61269 0.637455 6.243C0.595553 6.29881 0.565054 6.36233 0.547699 6.42993C0.530344 6.49753 0.526474 6.56788 0.53631 6.63698C0.546145 6.70607 0.569493 6.77255 0.605021 6.83262C0.640549 6.8927 0.687561 6.94518 0.743373 6.98708C0.799185 7.02899 0.862704 7.05949 0.930302 7.07684C0.997901 7.09419 1.06826 7.09806 1.13735 7.08823C1.20644 7.07839 1.27293 7.05505 1.333 7.01952C1.39307 6.98399 1.44555 6.93698 1.48746 6.88117C1.80766 6.45076 2.22444 6.10155 2.70426 5.86164C3.18407 5.62173 3.71351 5.49783 4.24996 5.49992C4.39085 5.49992 4.52598 5.44394 4.62561 5.34432C4.72523 5.24469 4.78121 5.10956 4.78121 4.96867Z" fill="white"/>
</svg>
