<svg width="129" height="75" viewBox="0 0 129 75" fill="none" xmlns="http://www.w3.org/2000/svg">
<path d="M108 39C108 52.8071 96.8071 64 83 64C69.1929 64 58 52.8071 58 39C58 25.1929 69.1929 14 83 14C96.8071 14 108 25.1929 108 39Z" fill="#3BB77E"/>
<path d="M34 39C34 43.9706 29.9706 48 25 48C20.0294 48 16 43.9706 16 39C16 34.0294 20.0294 30 25 30C29.9706 30 34 34.0294 34 39Z" fill="#3BB77E"/>
<path d="M33.1034 39L32.6782 36.875L31.8276 34.75L31.4023 33.9L30.5517 33.05L29.7011 32.2L28 30.5L34.8046 33.9L36.5057 34.325L38.2069 34.75L40.3333 35.175H42.0345H44.1609L45.8621 34.75L47.5632 34.325L50.1149 33.475L52.6667 32.2L55.2184 30.5L57.7701 28.375L60.3218 26.25L65 22L61.1724 27.95L59.8966 31.35L59.046 34.75L58.6207 39L59.046 43.25L59.8966 46.65L61.1724 50.05L65 56L59.8966 51.75L57.7701 50.05L55.2184 48.35L52.6667 47.075L50.1149 45.8L47.5632 44.525L45.8621 44.1L44.1609 43.675H42.0345H40.3333L38.2069 44.1L36.5057 44.525L34.8046 44.95L28 47.5L29.7011 45.8L30.5517 44.95L31.4023 44.1L31.8276 43.25L32.6782 41.125L33.1034 39Z" fill="#3BB77E"/>
<circle cx="25" cy="39" r="7" fill="#D9D9D9"/>
<path d="M96.6733 26.595C97.0059 26.595 97.24 26.6554 97.3619 26.7012C97.5083 27.0823 97.7047 28.4478 96.2612 29.8602L88.8971 37.06L88.9502 37.9532C89.0619 39.8225 89.269 43.1725 89.4475 46.0442C89.6051 48.6003 89.7546 51.0142 89.7643 51.2196C89.7694 51.3608 89.7715 51.3942 89.6368 51.5528C89.3358 51.9104 88.7742 52.5164 88.3009 53.0186C87.5669 51.085 86.0244 47.0008 85.1726 44.7146L84.0779 41.7731L81.8137 43.987L77.6499 47.9016L77.07 48.4676L77.0521 49.2681C77.0384 49.907 77.0414 51.0536 77.0429 52.0645C77.045 52.7688 77.0471 53.4086 77.042 53.7612C77.0328 53.7777 77.1812 53.7972 77.1674 53.8206C77.0787 53.6814 76.9833 53.5313 76.8823 53.3752C76.0427 52.066 74.8808 50.2551 74.5262 49.69L74.2671 49.2761L73.8417 49.0247C72.2947 48.111 70.5808 47.0562 69.5351 46.3974C69.5713 46.3769 69.6009 46.4852 69.6249 46.4727H69.6927C70.0217 46.4727 70.5655 46.4796 71.175 46.4881C71.9722 46.4986 72.8766 46.5116 73.5688 46.5116C73.834 46.5116 74.0697 46.5096 74.2594 46.5056L75.0781 46.4871L75.6571 45.9211L79.6658 41.8778L81.9224 39.6724L78.9277 38.5951C76.6772 37.7857 72.3666 36.2116 70.3502 35.471C70.8674 35.0052 71.4907 34.4521 71.8544 34.1578C71.9559 34.076 72.035 34.0341 72.0896 34.0341L72.1615 34.0361C72.3864 34.0466 75.1801 34.2251 77.881 34.3977C80.7481 34.5807 83.9841 34.7872 85.8239 34.9014L86.7436 34.9578L94.1086 27.756C95.143 26.7461 96.1591 26.595 96.6733 26.595ZM96.6733 24.6001C95.468 24.6001 93.9883 25.0529 92.6667 26.3456L85.9526 32.91C82.1708 32.6761 72.4855 32.0497 72.2452 32.0432C72.1934 32.0406 72.1415 32.0393 72.0896 32.0392C71.7627 32.0392 71.198 32.1005 70.5553 32.6197C69.8009 33.2297 68.2278 34.6761 68.2278 34.6761C67.8483 35.0481 67.656 35.5089 67.7019 35.9423C67.73 36.2042 67.8754 36.6815 68.5328 36.9329C68.9322 37.086 75.2883 39.4111 78.2234 40.4669L74.2147 44.5102C74.0371 44.5142 73.8173 44.5162 73.5689 44.5162C72.3467 44.5162 70.4518 44.4773 69.6922 44.4773C69.5917 44.4773 69.5111 44.4773 69.454 44.4793C69.2229 44.4862 68.7445 44.375 67.4825 45.4064L67.3928 45.4882C67.0143 45.8583 66.9255 46.2273 66.9174 46.4712C66.9092 46.7226 66.9781 47.0847 67.3499 47.3759C67.5733 47.5525 70.4374 49.3454 72.7863 50.7324C73.3495 51.6307 75.9407 55.6575 76.0758 55.8759C76.2733 56.2021 76.5961 56.3881 76.9823 56.4001H77.0144C77.3898 56.4001 77.7754 56.2181 78.1529 55.8595C79.221 54.6381 79.0736 54.1324 79.0782 53.9199C79.095 53.2536 79.0664 50.4307 79.0909 49.3115L83.2542 45.3964C84.3182 48.2542 86.6442 54.4051 86.7997 54.7966C87.0589 55.4395 87.547 55.5807 87.8148 55.6071C87.8587 55.6121 87.9036 55.6141 87.9474 55.6141C88.3499 55.6141 88.7671 55.4291 89.1089 55.0949C89.1089 55.0949 90.5835 53.5648 91.2099 52.8202C91.8373 52.0761 91.8128 51.4407 91.8006 51.1409C91.7955 50.9335 91.2048 41.5148 90.9854 37.8366L97.7011 31.2702C100.081 28.942 99.7027 26.1367 98.8188 25.2739C98.4285 24.8903 97.6384 24.6001 96.6733 24.6001Z" fill="white"/>
</svg>
