<svg width="34" height="33" viewBox="0 0 34 33" fill="none" xmlns="http://www.w3.org/2000/svg">
<path d="M30.6733 2.59496C31.0059 2.59496 31.24 2.65537 31.3619 2.70125C31.5083 3.08229 31.7047 4.4478 30.2612 5.86022L22.8971 13.06L22.9502 13.9532C23.0619 15.8225 23.269 19.1725 23.4475 22.0442C23.6051 24.6003 23.7546 27.0142 23.7643 27.2196C23.7694 27.3608 23.7715 27.3942 23.6368 27.5528C23.3358 27.9104 22.7742 28.5164 22.3009 29.0186C21.5669 27.085 20.0244 23.0008 19.1726 20.7146L18.0779 17.7731L15.8137 19.987L11.6499 23.9016L11.07 24.4676L11.0521 25.2681C11.0384 25.907 11.0414 27.0536 11.0429 28.0645C11.045 28.7688 11.0471 29.4086 11.042 29.7612C11.0328 29.7777 11.1812 29.7972 11.1674 29.8206C11.0787 29.6814 10.9833 29.5313 10.8823 29.3752C10.0427 28.066 8.88075 26.2551 8.52625 25.69L8.26713 25.2761L7.84172 25.0247C6.29465 24.111 4.58078 23.0562 3.53512 22.3974C3.57134 22.3769 3.60089 22.4852 3.62487 22.4727H3.69271C4.02171 22.4727 4.56545 22.4796 5.17499 22.4881C5.97225 22.4986 6.87662 22.5116 7.5688 22.5116C7.83404 22.5116 8.06969 22.5096 8.25944 22.5056L9.07812 22.4871L9.65706 21.9211L13.6658 17.8778L15.9224 15.6724L12.9277 14.5951C10.6772 13.7857 6.36657 12.2116 4.35023 11.471C4.86742 11.0052 5.49073 10.4521 5.85442 10.1578C5.95593 10.076 6.03502 10.0341 6.08957 10.0341L6.16149 10.0361C6.38643 10.0466 9.18013 10.2251 11.881 10.3977C14.7481 10.5807 17.9841 10.7872 19.8239 10.9014L20.7436 10.9578L28.1086 3.75602C29.143 2.74607 30.1591 2.59496 30.6733 2.59496ZM30.6733 0.600098C29.468 0.600098 27.9883 1.05289 26.6667 2.34562L19.9526 8.91001C16.1708 8.6761 6.48545 8.04968 6.2452 8.0432C6.19339 8.04063 6.14151 8.03929 6.08963 8.03918C5.76267 8.03918 5.19801 8.10052 4.55531 8.61971C3.80091 9.2297 2.22782 10.6761 2.22782 10.6761C1.84832 11.0481 1.65602 11.5089 1.70193 11.9423C1.72999 12.2042 1.87536 12.6815 2.53285 12.9329C2.93224 13.086 9.28834 15.4111 12.2234 16.4669L8.21465 20.5102C8.03711 20.5142 7.81727 20.5162 7.56886 20.5162C6.34671 20.5162 4.45177 20.4773 3.69223 20.4773C3.59174 20.4773 3.51115 20.4773 3.45399 20.4793C3.22292 20.4862 2.74447 20.375 1.48253 21.4064L1.39276 21.4882C1.01428 21.8583 0.925528 22.2273 0.917366 22.4712C0.909205 22.7226 0.978066 23.0847 1.34991 23.3759C1.57333 23.5525 4.43742 25.3455 6.7863 26.7324C7.34946 27.6307 9.94066 31.6575 10.0758 31.8759C10.2733 32.2021 10.5961 32.3881 10.9823 32.4001H11.0144C11.3898 32.4001 11.7754 32.2181 12.1529 31.8595C13.221 30.6381 13.0736 30.1324 13.0782 29.9199C13.095 29.2536 13.0664 26.4307 13.0909 25.3115L17.2542 21.3964C18.3182 24.2542 20.6442 30.4051 20.7997 30.7966C21.0589 31.4395 21.547 31.5807 21.8148 31.6071C21.8587 31.6121 21.9036 31.6141 21.9474 31.6141C22.3499 31.6141 22.7671 31.4291 23.1089 31.0949C23.1089 31.0949 24.5835 29.5648 25.2099 28.8202C25.8373 28.0761 25.8128 27.4407 25.8006 27.1409C25.7955 26.9335 25.2048 17.5148 24.9854 13.8366L31.7011 7.27019C34.0812 4.94205 33.7027 2.13668 32.8188 1.27386C32.4285 0.890332 31.6384 0.600129 30.6733 0.600098Z" fill="white"/>
</svg>
