<svg width="16" height="14" viewBox="0 0 16 14" fill="none" xmlns="http://www.w3.org/2000/svg">
<path d="M8.45005 5.64995C8.82985 5.64995 9.20605 5.65355 9.59125 5.79215C9.96295 5.92535 10.3742 6.19805 10.7756 6.80015C10.8084 6.84932 10.8506 6.89154 10.8997 6.92442C10.9488 6.95729 11.0039 6.98017 11.0619 6.99174C11.1199 7.00332 11.1795 7.00336 11.2375 6.99188C11.2955 6.98039 11.3506 6.9576 11.3998 6.9248C11.449 6.892 11.4912 6.84984 11.5241 6.80073C11.5569 6.75161 11.5798 6.6965 11.5914 6.63854C11.603 6.58058 11.603 6.52091 11.5915 6.46294C11.58 6.40496 11.5572 6.34982 11.5244 6.30065C11.0249 5.55185 10.4624 5.14865 9.89545 4.94525C9.35455 4.74995 8.83705 4.74995 8.46805 4.74995H8.45005C8.3307 4.74995 8.21624 4.79736 8.13185 4.88175C8.04746 4.96614 8.00005 5.0806 8.00005 5.19995C8.00005 5.3193 8.04746 5.43376 8.13185 5.51815C8.21624 5.60254 8.3307 5.64995 8.45005 5.64995ZM6.20005 2.49995V3.21095C3.59815 3.98495 1.70005 6.39605 1.70005 9.24995C1.70005 9.3693 1.74746 9.48376 1.83185 9.56815C1.91624 9.65254 2.0307 9.69995 2.15005 9.69995H13.85C13.9694 9.69995 14.0839 9.65254 14.1682 9.56815C14.2526 9.48376 14.3 9.3693 14.3 9.24995C14.3 7.89307 13.862 6.57244 13.0512 5.48441C12.2405 4.39638 11.1002 3.59905 9.80005 3.21095V2.49995C9.80005 2.02256 9.61041 1.56472 9.27284 1.22716C8.93528 0.889593 8.47744 0.699951 8.00005 0.699951C7.52266 0.699951 7.06482 0.889593 6.72726 1.22716C6.38969 1.56472 6.20005 2.02256 6.20005 2.49995ZM8.00005 1.59995C8.23874 1.59995 8.46766 1.69477 8.63644 1.86356C8.80523 2.03234 8.90005 2.26126 8.90005 2.49995V3.01295C8.30309 2.92754 7.69701 2.92754 7.10005 3.01295V2.49995C7.10005 2.26126 7.19487 2.03234 7.36365 1.86356C7.53244 1.69477 7.76135 1.59995 8.00005 1.59995ZM8.00005 3.84995C9.35445 3.84976 10.6595 4.35853 11.6564 5.27539C12.6532 6.19226 13.2692 7.45026 13.382 8.79995H2.61805C2.73092 7.45026 3.34686 6.19226 4.34374 5.27539C5.34062 4.35853 6.64564 3.84976 8.00005 3.84995ZM2.15005 10.6C1.79201 10.6 1.44863 10.7422 1.19545 10.9954C0.942281 11.2485 0.800049 11.5919 0.800049 11.95C0.800049 12.308 0.942281 12.6514 1.19545 12.9045C1.44863 13.1577 1.79201 13.3 2.15005 13.3H13.85C14.2081 13.3 14.5515 13.1577 14.8046 12.9045C15.0578 12.6514 15.2 12.308 15.2 11.95C15.2 11.5919 15.0578 11.2485 14.8046 10.9954C14.5515 10.7422 14.2081 10.6 13.85 10.6H2.15005ZM1.70005 11.95C1.70005 11.8306 1.74746 11.7161 1.83185 11.6318C1.91624 11.5474 2.0307 11.5 2.15005 11.5H13.85C13.9694 11.5 14.0839 11.5474 14.1682 11.6318C14.2526 11.7161 14.3 11.8306 14.3 11.95C14.3 12.0693 14.2526 12.1838 14.1682 12.2682C14.0839 12.3525 13.9694 12.4 13.85 12.4H2.15005C2.0307 12.4 1.91624 12.3525 1.83185 12.2682C1.74746 12.1838 1.70005 12.0693 1.70005 11.95Z" fill="black"/>
</svg>
