<svg width="16" height="18" viewBox="0 0 16 18" fill="none" xmlns="http://www.w3.org/2000/svg">
<path fill-rule="evenodd" clip-rule="evenodd" d="M12.1086 4.83317C12.1351 4.77411 12.1475 4.70974 12.1449 4.64511H12.1667C12.0735 2.42143 10.2374 0.666504 8.00412 0.666504C5.77083 0.666504 3.93477 2.42143 3.84157 4.64511C3.83059 4.70732 3.83059 4.77096 3.84157 4.83317H3.77643C2.70851 4.83317 1.56695 5.53814 1.23553 7.43323L0.58742 12.5955C0.0571469 16.3856 2.00885 17.3332 4.55711 17.3332H11.4654C14.0063 17.3332 15.8991 15.9611 15.4277 12.5955L14.787 7.43323C14.3966 5.59121 13.2919 4.83317 12.2387 4.83317H12.1086ZM10.911 4.83317C10.8878 4.77312 10.8755 4.70944 10.8747 4.64511C10.8747 3.04719 9.57488 1.75182 7.97146 1.75182C6.36803 1.75182 5.0682 3.04719 5.0682 4.64511C5.07919 4.70732 5.07919 4.77096 5.0682 4.83317H10.911ZM5.58083 9.12365C5.17408 9.12365 4.84434 8.78427 4.84434 8.36561C4.84434 7.94696 5.17408 7.60758 5.58083 7.60758C5.98758 7.60758 6.31732 7.94696 6.31732 8.36561C6.31732 8.78427 5.98758 9.12365 5.58083 9.12365ZM9.66836 8.36561C9.66836 8.78427 9.99809 9.12365 10.4048 9.12365C10.8116 9.12365 11.1413 8.78427 11.1413 8.36561C11.1413 7.94696 10.8116 7.60758 10.4048 7.60758C9.99809 7.60758 9.66836 7.94696 9.66836 8.36561Z" fill="white"/>
</svg>
