<svg width="15" height="16" viewBox="0 0 15 16" fill="none" xmlns="http://www.w3.org/2000/svg">
<path d="M7.50003 1V15M9.41652 2.5C8.83812 2.82811 8.17537 3.00102 7.50003 3C6.8247 3.00102 6.16195 2.82811 5.58355 2.5M5.58355 13.5C6.16237 13.1728 6.82485 13 7.50003 13C8.17522 13 8.83769 13.1728 9.41652 13.5M13.9411 4.5L1.05896 11.5M13.5188 6.8125C12.9282 6.50424 12.4379 6.05056 12.1003 5.50006C11.7628 4.94956 11.5907 4.32299 11.6026 3.6875M1.4813 9.1875C2.07188 9.49576 2.56222 9.94944 2.89976 10.4999C3.23731 11.0504 3.40936 11.677 3.39746 12.3125M1.05896 4.5L13.9411 11.5M1.4813 6.8125C2.07188 6.50424 2.56222 6.05056 2.89976 5.50006C3.23731 4.94956 3.40936 4.32299 3.39746 3.6875M13.5188 9.1875C12.9282 9.49576 12.4379 9.94944 12.1003 10.4999C11.7628 11.0504 11.5907 11.677 11.6026 12.3125" stroke="black" stroke-linecap="round" stroke-linejoin="round"/>
</svg>
