<svg width="11" height="8" viewBox="0 0 11 8" fill="none" xmlns="http://www.w3.org/2000/svg">
<path id="Vector" d="M10.0009 0.656699C10.1046 0.745534 10.1674 0.870366 10.1755 1.00377C10.1837 1.13717 10.1365 1.26823 10.0444 1.36816L4.46031 7.41883C4.41119 7.47207 4.35092 7.51468 4.28347 7.54386C4.21602 7.57303 4.14291 7.58812 4.06897 7.58812C3.99502 7.58812 3.92192 7.57303 3.85446 7.54386C3.78701 7.51468 3.72674 7.47207 3.67762 7.41883L0.885595 4.3935C0.79875 4.29288 0.755913 4.1637 0.766133 4.03323C0.776354 3.90276 0.838831 3.78123 0.940368 3.6943C1.0419 3.60738 1.17455 3.56187 1.31028 3.56739C1.44601 3.57291 1.5742 3.62903 1.66776 3.72389L4.0687 6.32517L9.2622 0.698045C9.35451 0.598288 9.48416 0.537899 9.62267 0.530147C9.76118 0.522394 9.89722 0.567911 10.0009 0.656699Z" fill="white"/>
</svg>
