<svg width="12" height="15" viewBox="0 0 12 15" fill="none" xmlns="http://www.w3.org/2000/svg">
<path d="M11.25 0H0.75C0.335786 0 0 0.335786 0 0.75V14.25C0 14.6642 0.335786 15 0.75 15H11.25C11.6642 15 12 14.6642 12 14.25V0.75C12 0.335786 11.6642 0 11.25 0Z" stroke="black" stroke-width="1.5"/>
<path d="M0 3C0 3.19891 0.0790178 3.38968 0.21967 3.53033C0.360322 3.67098 0.551088 3.75 0.75 3.75H11.25C11.4489 3.75 11.6397 3.67098 11.7803 3.53033C11.921 3.38968 12 3.19891 12 3V0.75C12 0.551088 11.921 0.360322 11.7803 0.21967C11.6397 0.0790176 11.4489 0 11.25 0H0.75C0.551088 0 0.360322 0.0790176 0.21967 0.21967C0.0790178 0.360322 0 0.551088 0 0.75V3Z" stroke="black" stroke-width="1.5"/>
<path d="M2.25012 2.625C2.66434 2.625 3.00012 2.28921 3.00012 1.875C3.00012 1.46079 2.66434 1.125 2.25012 1.125C1.83591 1.125 1.50012 1.46079 1.50012 1.875C1.50012 2.28921 1.83591 2.625 2.25012 2.625Z" fill="black"/>
<path d="M4.50012 2.625C4.91434 2.625 5.25012 2.28921 5.25012 1.875C5.25012 1.46079 4.91434 1.125 4.50012 1.125C4.08591 1.125 3.75012 1.46079 3.75012 1.875C3.75012 2.28921 4.08591 2.625 4.50012 2.625Z" fill="black"/>
<path d="M6 12C7.44975 12 8.625 10.8247 8.625 9.375C8.625 7.92525 7.44975 6.75 6 6.75C4.55025 6.75 3.375 7.92525 3.375 9.375C3.375 10.8247 4.55025 12 6 12Z" stroke="black" stroke-width="1.5"/>
</svg>
