<svg width="20" height="19" viewBox="0 0 20 19" fill="none" xmlns="http://www.w3.org/2000/svg">
<g clip-path="url(#clip0_326_3192)">
<path d="M18.6389 4.32785C16.0739 2.71716 13.0653 1.86192 9.99057 1.86943C6.91584 1.87695 3.9119 2.74687 1.35561 4.37007C1.29506 4.40889 1.24315 4.45865 1.20284 4.51652C1.16253 4.57439 1.13461 4.63924 1.12068 4.70737C1.09255 4.84494 1.1231 4.9875 1.20561 5.10368C1.28813 5.21986 1.41584 5.30015 1.56066 5.32687C1.70548 5.35359 1.85554 5.32457 1.97784 5.24618C4.35235 3.74015 7.1419 2.93331 9.99697 2.92673C12.852 2.92016 15.6457 3.71416 18.0278 5.20924C18.1509 5.28347 18.2997 5.30881 18.4422 5.27978C18.5847 5.25075 18.7095 5.16968 18.7897 5.05405C18.8698 4.93842 18.899 4.79749 18.8708 4.66165C18.8426 4.5258 18.7593 4.40592 18.6389 4.32785Z" fill="white"/>
<path d="M10.0277 5.65772C7.68176 5.65496 5.39079 6.33256 3.46107 7.59995C3.37367 7.68861 3.32114 7.80321 3.31235 7.92439C3.30356 8.04558 3.33904 8.16593 3.4128 8.26515C3.48656 8.36438 3.5941 8.43639 3.71725 8.46904C3.84041 8.50169 3.97166 8.49299 4.08885 8.44439C5.83015 7.31321 7.89047 6.70799 9.99996 6.70799C12.1094 6.70799 14.1698 7.31321 15.9111 8.44439C16.0326 8.51052 16.1759 8.53063 16.3123 8.50068C16.4488 8.47073 16.5683 8.39293 16.6469 8.28286C16.7256 8.17279 16.7575 8.03857 16.7365 7.90705C16.7154 7.77553 16.6428 7.65642 16.5333 7.57356C14.6174 6.32705 12.3499 5.65928 10.0277 5.65772Z" fill="white"/>
<path d="M10.0278 9.44729C8.42782 9.44984 6.8706 9.93803 5.58331 10.8406C5.47472 10.9266 5.40471 11.0487 5.38754 11.1819C5.37037 11.3152 5.40733 11.4497 5.49089 11.5581C5.57445 11.6664 5.69833 11.7403 5.8373 11.7649C5.97627 11.7895 6.11987 11.7628 6.23886 11.6903C7.33296 10.9232 8.65514 10.5057 10.015 10.4982C11.3748 10.4906 12.702 10.8932 13.8055 11.6481C13.863 11.7007 13.9317 11.741 14.0071 11.7661C14.0824 11.7912 14.1625 11.8006 14.242 11.7936C14.3215 11.7867 14.3984 11.7635 14.4676 11.7258C14.5369 11.688 14.5967 11.6366 14.6431 11.5748C14.6895 11.5131 14.7214 11.4427 14.7365 11.3682C14.7516 11.2938 14.7497 11.2171 14.7309 11.1434C14.712 11.0697 14.6767 11.0008 14.6272 10.9412C14.5778 10.8817 14.5155 10.833 14.4444 10.7984C13.1592 9.91649 11.6132 9.44355 10.0278 9.44729Z" fill="white"/>
<path d="M10.0001 12.8884C9.56054 12.8884 9.1309 13.0122 8.76546 13.2442C8.40001 13.4762 8.11518 13.8059 7.94699 14.1917C7.77879 14.5774 7.73479 15.0019 7.82053 15.4114C7.90628 15.8209 8.11792 16.1971 8.42871 16.4923C8.73949 16.7876 9.13545 16.9886 9.56652 17.0701C9.99759 17.1515 10.4444 17.1097 10.8505 16.95C11.2565 16.7902 11.6036 16.5196 11.8478 16.1724C12.0919 15.8252 12.2223 15.4171 12.2223 14.9995C12.2223 14.4396 11.9882 13.9027 11.5714 13.5068C11.1547 13.1108 10.5894 12.8884 10.0001 12.8884ZM10.0001 16.0551C9.7803 16.0551 9.56548 15.9932 9.38275 15.8772C9.20003 15.7612 9.05762 15.5964 8.97352 15.4035C8.88943 15.2106 8.86742 14.9984 8.91029 14.7936C8.95317 14.5889 9.05899 14.4008 9.21438 14.2531C9.36977 14.1055 9.56775 14.005 9.78329 13.9643C9.99882 13.9235 10.2222 13.9444 10.4253 14.0243C10.6283 14.1042 10.8018 14.2395 10.9239 14.4131C11.046 14.5867 11.1112 14.7908 11.1112 14.9995C11.1112 15.2795 10.9941 15.548 10.7857 15.7459C10.5774 15.9439 10.2947 16.0551 10.0001 16.0551Z" fill="white"/>
</g>
<defs>
<clipPath id="clip0_326_3192">
<rect width="20" height="19" fill="white"/>
</clipPath>
</defs>
</svg>
