<svg width="129" height="75" viewBox="0 0 129 75" fill="none" xmlns="http://www.w3.org/2000/svg">
<path d="M108 39C108 52.8071 96.8071 64 83 64C69.1929 64 58 52.8071 58 39C58 25.1929 69.1929 14 83 14C96.8071 14 108 25.1929 108 39Z" fill="#3BB77E"/>
<path d="M34 39C34 43.9706 29.9706 48 25 48C20.0294 48 16 43.9706 16 39C16 34.0294 20.0294 30 25 30C29.9706 30 34 34.0294 34 39Z" fill="#3BB77E"/>
<path d="M33.1034 39L32.6782 36.875L31.8276 34.75L31.4023 33.9L30.5517 33.05L29.7011 32.2L28 30.5L34.8046 33.9L36.5057 34.325L38.2069 34.75L40.3333 35.175H42.0345H44.1609L45.8621 34.75L47.5632 34.325L50.1149 33.475L52.6667 32.2L55.2184 30.5L57.7701 28.375L60.3218 26.25L65 22L61.1724 27.95L59.8966 31.35L59.046 34.75L58.6207 39L59.046 43.25L59.8966 46.65L61.1724 50.05L65 56L59.8966 51.75L57.7701 50.05L55.2184 48.35L52.6667 47.075L50.1149 45.8L47.5632 44.525L45.8621 44.1L44.1609 43.675H42.0345H40.3333L38.2069 44.1L36.5057 44.525L34.8046 44.95L28 47.5L29.7011 45.8L30.5517 44.95L31.4023 44.1L31.8276 43.25L32.6782 41.125L33.1034 39Z" fill="#3BB77E"/>
<circle cx="25" cy="39" r="7" fill="#D9D9D9"/>
<path d="M74.2501 33.35C74.2501 33.098 74.3581 32.8564 74.5503 32.6782C74.7425 32.5 75.0033 32.4 75.2751 32.4H89.6251C89.8969 32.4 90.1577 32.5 90.3499 32.6782C90.5421 32.8564 90.6501 33.098 90.6501 33.35C90.6501 33.6019 90.5421 33.8435 90.3499 34.0217C90.1577 34.1999 89.8969 34.3 89.6251 34.3H75.2751C75.0033 34.3 74.7425 34.1999 74.5503 34.0217C74.3581 33.8435 74.2501 33.6019 74.2501 33.35ZM85.5251 38.1C85.2533 38.1 84.9925 38.2 84.8003 38.3782C84.6081 38.5564 84.5001 38.798 84.5001 39.05C84.5001 39.3019 84.6081 39.5435 84.8003 39.7217C84.9925 39.8999 85.2533 40 85.5251 40H89.6251C89.8969 40 90.1577 39.8999 90.3499 39.7217C90.5421 39.5435 90.6501 39.3019 90.6501 39.05C90.6501 38.798 90.5421 38.5564 90.3499 38.3782C90.1577 38.2 89.8969 38.1 89.6251 38.1H85.5251ZM84.5001 44.75C84.5001 44.498 84.6081 44.2564 84.8003 44.0782C84.9925 43.9 85.2533 43.8 85.5251 43.8H89.6251C89.8969 43.8 90.1577 43.9 90.3499 44.0782C90.5421 44.2564 90.6501 44.498 90.6501 44.75C90.6501 45.0019 90.5421 45.2435 90.3499 45.4217C90.1577 45.5999 89.8969 45.7 89.6251 45.7H85.5251C85.2533 45.7 84.9925 45.5999 84.8003 45.4217C84.6081 45.2435 84.5001 45.0019 84.5001 44.75ZM75.2751 38.1C75.0033 38.1 74.7425 38.2 74.5503 38.3782C74.3581 38.5564 74.2501 38.798 74.2501 39.05V44.75C74.2501 45.0019 74.3581 45.2435 74.5503 45.4217C74.7425 45.5999 75.0033 45.7 75.2751 45.7H81.4251C81.6969 45.7 81.9577 45.5999 82.1499 45.4217C82.3421 45.2435 82.4501 45.0019 82.4501 44.75V39.05C82.4501 38.798 82.3421 38.5564 82.1499 38.3782C81.9577 38.2 81.6969 38.1 81.4251 38.1H75.2751ZM76.3001 43.8V40H80.4001V43.8H76.3001ZM68.1001 30.5C68.1001 29.4921 68.5321 28.5256 69.301 27.8129C70.0699 27.1003 71.1127 26.7 72.2001 26.7H92.7001C93.7875 26.7 94.8303 27.1003 95.5992 27.8129C96.3681 28.5256 96.8001 29.4921 96.8001 30.5V32.4C97.8875 32.4 98.9303 32.8003 99.6992 33.5129C100.468 34.2256 100.9 35.1921 100.9 36.2V46.65C100.9 47.9097 100.36 49.1179 99.399 50.0087C98.4379 50.8995 97.1343 51.4 95.7751 51.4H73.2251C71.8659 51.4 70.5623 50.8995 69.6012 50.0087C68.6401 49.1179 68.1001 47.9097 68.1001 46.65V30.5ZM94.7501 30.5C94.7501 29.996 94.5341 29.5128 94.1497 29.1564C93.7652 28.8001 93.2438 28.6 92.7001 28.6H72.2001C71.6564 28.6 71.135 28.8001 70.7505 29.1564C70.3661 29.5128 70.1501 29.996 70.1501 30.5V46.65C70.1501 47.4058 70.4741 48.1307 71.0507 48.6652C71.6274 49.1997 72.4096 49.5 73.2251 49.5H95.7751C96.5906 49.5 97.3728 49.1997 97.9494 48.6652C98.5261 48.1307 98.8501 47.4058 98.8501 46.65V36.2C98.8501 35.696 98.6341 35.2128 98.2497 34.8564C97.8652 34.5001 97.3438 34.3 96.8001 34.3V46.65C96.8001 46.9019 96.6921 47.1435 96.4999 47.3217C96.3077 47.4999 96.0469 47.6 95.7751 47.6C95.5033 47.6 95.2425 47.4999 95.0503 47.3217C94.8581 47.1435 94.7501 46.9019 94.7501 46.65V30.5Z" fill="white"/>
</svg>
