<svg width="33" height="26" viewBox="0 0 33 26" fill="none" xmlns="http://www.w3.org/2000/svg">
<path d="M6.2501 7.34995C6.2501 7.098 6.35809 6.85636 6.55031 6.6782C6.74254 6.50004 7.00325 6.39995 7.2751 6.39995H21.6251C21.8969 6.39995 22.1577 6.50004 22.3499 6.6782C22.5421 6.85636 22.6501 7.098 22.6501 7.34995C22.6501 7.60191 22.5421 7.84354 22.3499 8.0217C22.1577 8.19986 21.8969 8.29995 21.6251 8.29995H7.2751C7.00325 8.29995 6.74254 8.19986 6.55031 8.0217C6.35809 7.84354 6.2501 7.60191 6.2501 7.34995ZM17.5251 12.1C17.2533 12.1 16.9925 12.2 16.8003 12.3782C16.6081 12.5564 16.5001 12.798 16.5001 13.05C16.5001 13.3019 16.6081 13.5435 16.8003 13.7217C16.9925 13.8999 17.2533 14 17.5251 14H21.6251C21.8969 14 22.1577 13.8999 22.3499 13.7217C22.5421 13.5435 22.6501 13.3019 22.6501 13.05C22.6501 12.798 22.5421 12.5564 22.3499 12.3782C22.1577 12.2 21.8969 12.1 21.6251 12.1H17.5251ZM16.5001 18.75C16.5001 18.498 16.6081 18.2564 16.8003 18.0782C16.9925 17.9 17.2533 17.8 17.5251 17.8H21.6251C21.8969 17.8 22.1577 17.9 22.3499 18.0782C22.5421 18.2564 22.6501 18.498 22.6501 18.75C22.6501 19.0019 22.5421 19.2435 22.3499 19.4217C22.1577 19.5999 21.8969 19.7 21.6251 19.7H17.5251C17.2533 19.7 16.9925 19.5999 16.8003 19.4217C16.6081 19.2435 16.5001 19.0019 16.5001 18.75ZM7.2751 12.1C7.00325 12.1 6.74254 12.2 6.55031 12.3782C6.35809 12.5564 6.2501 12.798 6.2501 13.05V18.75C6.2501 19.0019 6.35809 19.2435 6.55031 19.4217C6.74254 19.5999 7.00325 19.7 7.2751 19.7H13.4251C13.6969 19.7 13.9577 19.5999 14.1499 19.4217C14.3421 19.2435 14.4501 19.0019 14.4501 18.75V13.05C14.4501 12.798 14.3421 12.5564 14.1499 12.3782C13.9577 12.2 13.6969 12.1 13.4251 12.1H7.2751ZM8.3001 17.8V14H12.4001V17.8H8.3001ZM0.100098 4.49995C0.100098 3.49213 0.532061 2.52558 1.30096 1.81295C2.06986 1.10031 3.11271 0.699951 4.2001 0.699951H24.7001C25.7875 0.699951 26.8303 1.10031 27.5992 1.81295C28.3681 2.52558 28.8001 3.49213 28.8001 4.49995V6.39995C29.8875 6.39995 30.9303 6.80031 31.6992 7.51295C32.4681 8.22558 32.9001 9.19213 32.9001 10.2V20.65C32.9001 21.9097 32.3601 23.1179 31.399 24.0087C30.4379 24.8995 29.1343 25.4 27.7751 25.4H5.2251C3.86586 25.4 2.5623 24.8995 1.60118 24.0087C0.640051 23.1179 0.100098 21.9097 0.100098 20.65V4.49995ZM26.7501 4.49995C26.7501 3.99604 26.5341 3.51277 26.1497 3.15645C25.7652 2.80013 25.2438 2.59995 24.7001 2.59995H4.2001C3.6564 2.59995 3.13498 2.80013 2.75053 3.15645C2.36608 3.51277 2.1501 3.99604 2.1501 4.49995V20.65C2.1501 21.4058 2.47407 22.1307 3.05074 22.6652C3.62742 23.1997 4.40956 23.5 5.2251 23.5H27.7751C28.5906 23.5 29.3728 23.1997 29.9494 22.6652C30.5261 22.1307 30.8501 21.4058 30.8501 20.65V10.2C30.8501 9.69604 30.6341 9.21277 30.2497 8.85645C29.8652 8.50013 29.3438 8.29995 28.8001 8.29995V20.65C28.8001 20.9019 28.6921 21.1435 28.4999 21.3217C28.3077 21.4999 28.0469 21.6 27.7751 21.6C27.5033 21.6 27.2425 21.4999 27.0503 21.3217C26.8581 21.1435 26.7501 20.9019 26.7501 20.65V4.49995Z" fill="white"/>
</svg>
